<?xml version="1.0" encoding="UTF-8" standalone="no"?>
<!-- Created with Inkscape (http://www.inkscape.org/) -->

<svg
   xmlns:dc="http://purl.org/dc/elements/1.1/"
   xmlns:cc="http://creativecommons.org/ns#"
   xmlns:rdf="http://www.w3.org/1999/02/22-rdf-syntax-ns#"
   xmlns:svg="http://www.w3.org/2000/svg"
   xmlns="http://www.w3.org/2000/svg"
   xmlns:sodipodi="http://sodipodi.sourceforge.net/DTD/sodipodi-0.dtd"
   xmlns:inkscape="http://www.inkscape.org/namespaces/inkscape"
   id="svg2"
   version="1.1"
   inkscape:version="0.48.1 r9760"
   width="450"
   height="315"
   xml:space="preserve"
   sodipodi:docname="chimeric_reads.pdf"><metadata
     id="metadata8"><rdf:RDF><cc:Work
         rdf:about=""><dc:format>image/svg+xml</dc:format><dc:type
           rdf:resource="http://purl.org/dc/dcmitype/StillImage" /><dc:title></dc:title></cc:Work></rdf:RDF></metadata><defs
     id="defs6"><marker
       inkscape:stockid="Arrow1Mend"
       orient="auto"
       refY="0"
       refX="0"
       id="Arrow1Mend"
       style="overflow:visible"><path
         inkscape:connector-curvature="0"
         id="path4417"
         d="M 0,0 5,-5 -12.5,0 5,5 0,0 z"
         style="fill-rule:evenodd;stroke:#000000;stroke-width:1pt;marker-start:none"
         transform="matrix(-0.4,0,0,-0.4,-4,0)" /></marker><marker
       inkscape:stockid="Arrow1Mend"
       orient="auto"
       refY="0"
       refX="0"
       id="Arrow1Mend-3"
       style="overflow:visible"><path
         inkscape:connector-curvature="0"
         id="path4417-4"
         d="M 0,0 5,-5 -12.5,0 5,5 0,0 z"
         style="fill-rule:evenodd;stroke:#000000;stroke-width:1pt;marker-start:none"
         transform="matrix(-0.4,0,0,-0.4,-4,0)" /></marker><marker
       inkscape:stockid="Arrow1Mend"
       orient="auto"
       refY="0"
       refX="0"
       id="Arrow1Mend-6"
       style="overflow:visible"><path
         inkscape:connector-curvature="0"
         id="path4417-9"
         d="M 0,0 5,-5 -12.5,0 5,5 0,0 z"
         style="fill-rule:evenodd;stroke:#000000;stroke-width:1pt;marker-start:none"
         transform="matrix(-0.4,0,0,-0.4,-4,0)" /></marker><marker
       inkscape:stockid="Arrow1Mend"
       orient="auto"
       refY="0"
       refX="0"
       id="Arrow1Mend-2"
       style="overflow:visible"><path
         inkscape:connector-curvature="0"
         id="path4417-5"
         d="M 0,0 5,-5 -12.5,0 5,5 0,0 z"
         style="fill-rule:evenodd;stroke:#000000;stroke-width:1pt;marker-start:none"
         transform="matrix(-0.4,0,0,-0.4,-4,0)" /></marker><marker
       inkscape:stockid="Arrow1Mend"
       orient="auto"
       refY="0"
       refX="0"
       id="Arrow1Mend-31"
       style="overflow:visible"><path
         inkscape:connector-curvature="0"
         id="path4417-54"
         d="M 0,0 5,-5 -12.5,0 5,5 0,0 z"
         style="fill-rule:evenodd;stroke:#000000;stroke-width:1pt;marker-start:none"
         transform="matrix(-0.4,0,0,-0.4,-4,0)" /></marker><marker
       inkscape:stockid="Arrow1Mend"
       orient="auto"
       refY="0"
       refX="0"
       id="Arrow1Mend-0"
       style="overflow:visible"><path
         inkscape:connector-curvature="0"
         id="path4417-7"
         d="M 0,0 5,-5 -12.5,0 5,5 0,0 z"
         style="fill-rule:evenodd;stroke:#000000;stroke-width:1pt;marker-start:none"
         transform="matrix(-0.4,0,0,-0.4,-4,0)" /></marker></defs><sodipodi:namedview
     pagecolor="#ffffff"
     bordercolor="#666666"
     borderopacity="1"
     objecttolerance="10"
     gridtolerance="10"
     guidetolerance="10"
     inkscape:pageopacity="0"
     inkscape:pageshadow="2"
     inkscape:window-width="1280"
     inkscape:window-height="1004"
     id="namedview4"
     showgrid="false"
     inkscape:zoom="1.73"
     inkscape:cx="209.76321"
     inkscape:cy="169.99138"
     inkscape:window-x="1280"
     inkscape:window-y="0"
     inkscape:window-maximized="1"
     inkscape:current-layer="g10" /><g
     id="g10"
     inkscape:groupmode="layer"
     inkscape:label="chimeric_reads"
     transform="matrix(1.25,0,0,-1.25,0,315)"><path
       inkscape:connector-curvature="0"
       id="path382"
       style="fill:none;stroke:#ff4d00;stroke-width:0.75;stroke-linecap:butt;stroke-linejoin:miter;stroke-miterlimit:3.79999995;stroke-opacity:1;stroke-dasharray:none"
       d="m 42.7,147.35 50.8,-0.9 50.75,-11 50.8,-7.6 50.75,-3.7 50.8,1.15 50.75,4"
       sodipodi:nodetypes="ccccccc" /><path
       inkscape:connector-curvature="0"
       id="path14"
       style="fill:none;stroke:#000000;stroke-width:1.5;stroke-linecap:butt;stroke-linejoin:miter;stroke-miterlimit:3.79999995;stroke-opacity:1;stroke-dasharray:none"
       d="m 42.7,22.4 3.15,0 m 301.5,0 -3.15,0" /><g
       id="g16"><text
         id="text18"
         transform="matrix(1,0,0,-1,30.7167,20.0648)"><tspan
           id="tspan20"
           sodipodi:role="line"
           y="0"
           x="0 3.892"
           style="font-size:7px;font-variant:normal;font-weight:normal;writing-mode:lr-tb;fill:#000000;fill-opacity:1;fill-rule:nonzero;stroke:none;font-family:Helvetica;-inkscape-font-specification:Helvetica">10</tspan></text>
</g><path
       inkscape:connector-curvature="0"
       id="path22"
       style="fill:none;stroke:#000000;stroke-width:1.5;stroke-linecap:butt;stroke-linejoin:miter;stroke-miterlimit:3.79999995;stroke-opacity:1;stroke-dasharray:none"
       d="m 42.7,43.35 1.55,0 m 303.1,0 -1.55,0 m -303.1,12.2 1.55,0 m 303.1,0 -1.55,0 m -303.1,8.7 1.55,0 m 303.1,0 -1.55,0 M 42.7,71 l 1.55,0 m 303.1,0 -1.55,0 m -303.1,5.5 1.55,0 m 303.1,0 -1.55,0 m -303.1,4.65 1.55,0 m 303.1,0 -1.55,0 m -303.1,4.05 1.55,0 m 303.1,0 -1.55,0 m -303.1,3.55 1.55,0 m 303.1,0 -1.55,0 m -303.1,3.15 3.15,0 m 301.5,0 -3.15,0" /><g
       id="g24"><text
         id="text26"
         transform="matrix(1,0,0,-1,26.8249,89.5648)"><tspan
           id="tspan28"
           sodipodi:role="line"
           y="0"
           x="0 3.892 7.7839999"
           style="font-size:7px;font-variant:normal;font-weight:normal;writing-mode:lr-tb;fill:#000000;fill-opacity:1;fill-rule:nonzero;stroke:none;font-family:Helvetica;-inkscape-font-specification:Helvetica">100</tspan></text>
</g><path
       inkscape:connector-curvature="0"
       id="path30"
       style="fill:none;stroke:#000000;stroke-width:1.5;stroke-linecap:butt;stroke-linejoin:miter;stroke-miterlimit:3.79999995;stroke-opacity:1;stroke-dasharray:none"
       d="m 42.7,112.85 1.55,0 m 303.1,0 -1.55,0 m -303.1,12.25 1.55,0 m 303.1,0 -1.55,0 m -303.1,8.65 1.55,0 m 303.1,0 -1.55,0 m -303.1,6.75 1.55,0 m 303.1,0 -1.55,0 m -303.1,5.5 1.55,0 m 303.1,0 -1.55,0 m -303.1,4.65 1.55,0 m 303.1,0 -1.55,0 m -303.1,4.05 1.55,0 m 303.1,0 -1.55,0 m -303.1,3.55 1.55,0 m 303.1,0 -1.55,0 m -303.1,3.2 3.15,0 m 301.5,0 -3.15,0" /><g
       id="g32"><text
         id="text34"
         transform="matrix(1,0,0,-1,22.9331,159.115)"><tspan
           id="tspan36"
           sodipodi:role="line"
           y="0"
           x="0 3.892 7.7839999 11.676"
           style="font-size:7px;font-variant:normal;font-weight:normal;writing-mode:lr-tb;fill:#000000;fill-opacity:1;fill-rule:nonzero;stroke:none;font-family:Helvetica;-inkscape-font-specification:Helvetica">1000</tspan></text>
</g><path
       inkscape:connector-curvature="0"
       id="path38"
       style="fill:none;stroke:#000000;stroke-width:1.5;stroke-linecap:butt;stroke-linejoin:miter;stroke-miterlimit:3.79999995;stroke-opacity:1;stroke-dasharray:none"
       d="m 42.7,182.35 1.55,0 m 303.1,0 -1.55,0 m -303.1,12.25 1.55,0 m 303.1,0 -1.55,0 m -303.1,8.7 1.55,0 m 303.1,0 -1.55,0 m -303.1,6.7 1.55,0 m 303.1,0 -1.55,0 m -303.1,5.55 1.55,0 m 303.1,0 -1.55,0 m -303.1,4.65 1.55,0 m 303.1,0 -1.55,0 m -303.1,4 1.55,0 m 303.1,0 -1.55,0 m -303.1,3.55 1.55,0 m 303.1,0 -1.55,0 m -303.1,3.2 3.15,0 m 301.5,0 -3.15,0" /><g
       id="g40"><text
         id="text42"
         transform="matrix(1,0,0,-1,19.0413,228.615)"><tspan
           id="tspan44"
           sodipodi:role="line"
           y="0"
           x="0 3.892 7.7839999 11.676 15.568"
           style="font-size:7px;font-variant:normal;font-weight:normal;writing-mode:lr-tb;fill:#000000;fill-opacity:1;fill-rule:nonzero;stroke:none;font-family:Helvetica;-inkscape-font-specification:Helvetica">10000</tspan></text>
</g><path
       inkscape:connector-curvature="0"
       id="path46"
       style="fill:none;stroke:#000000;stroke-width:1.5;stroke-linecap:butt;stroke-linejoin:miter;stroke-miterlimit:3.79999995;stroke-opacity:1;stroke-dasharray:none"
       d="m 42.7,22.4 0,3.15 m 0,205.4 0,-3.15" /><g
       id="g48"><text
         id="text50"
         transform="matrix(1,0,0,-1,39.7815,13.0648)"><tspan
           id="tspan52"
           sodipodi:role="line"
           y="0"
           x="0 3.892"
           style="font-size:7px;font-variant:normal;font-weight:normal;writing-mode:lr-tb;fill:#000000;fill-opacity:1;fill-rule:nonzero;stroke:none;font-family:Helvetica;-inkscape-font-specification:Helvetica">94</tspan></text>
</g><path
       inkscape:connector-curvature="0"
       id="path54"
       style="fill:none;stroke:#000000;stroke-width:1.5;stroke-linecap:butt;stroke-linejoin:miter;stroke-miterlimit:3.79999995;stroke-opacity:1;stroke-dasharray:none"
       d="m 93.5,22.4 0,3.15 m 0,205.4 0,-3.15" /><g
       id="g56"><text
         id="text58"
         transform="matrix(1,0,0,-1,90.5815,13.0648)"><tspan
           id="tspan60"
           sodipodi:role="line"
           y="0"
           x="0 3.892"
           style="font-size:7px;font-variant:normal;font-weight:normal;writing-mode:lr-tb;fill:#000000;fill-opacity:1;fill-rule:nonzero;stroke:none;font-family:Helvetica;-inkscape-font-specification:Helvetica">95</tspan></text>
</g><path
       inkscape:connector-curvature="0"
       id="path62"
       style="fill:none;stroke:#000000;stroke-width:1.5;stroke-linecap:butt;stroke-linejoin:miter;stroke-miterlimit:3.79999995;stroke-opacity:1;stroke-dasharray:none"
       d="m 144.25,22.4 0,3.15 m 0,205.4 0,-3.15" /><g
       id="g64"><text
         id="text66"
         transform="matrix(1,0,0,-1,141.332,13.0648)"><tspan
           id="tspan68"
           sodipodi:role="line"
           y="0"
           x="0 3.892"
           style="font-size:7px;font-variant:normal;font-weight:normal;writing-mode:lr-tb;fill:#000000;fill-opacity:1;fill-rule:nonzero;stroke:none;font-family:Helvetica;-inkscape-font-specification:Helvetica">96</tspan></text>
</g><path
       inkscape:connector-curvature="0"
       id="path70"
       style="fill:none;stroke:#000000;stroke-width:1.5;stroke-linecap:butt;stroke-linejoin:miter;stroke-miterlimit:3.79999995;stroke-opacity:1;stroke-dasharray:none"
       d="m 195.05,22.4 0,3.15 m 0,205.4 0,-3.15" /><g
       id="g72"><text
         id="text74"
         transform="matrix(1,0,0,-1,192.132,13.0648)"><tspan
           id="tspan76"
           sodipodi:role="line"
           y="0"
           x="0 3.892"
           style="font-size:7px;font-variant:normal;font-weight:normal;writing-mode:lr-tb;fill:#000000;fill-opacity:1;fill-rule:nonzero;stroke:none;font-family:Helvetica;-inkscape-font-specification:Helvetica">97</tspan></text>
</g><path
       inkscape:connector-curvature="0"
       id="path78"
       style="fill:none;stroke:#000000;stroke-width:1.5;stroke-linecap:butt;stroke-linejoin:miter;stroke-miterlimit:3.79999995;stroke-opacity:1;stroke-dasharray:none"
       d="m 245.8,22.4 0,3.15 m 0,205.4 0,-3.15" /><g
       id="g80"><text
         id="text82"
         transform="matrix(1,0,0,-1,242.882,13.0648)"><tspan
           id="tspan84"
           sodipodi:role="line"
           y="0"
           x="0 3.892"
           style="font-size:7px;font-variant:normal;font-weight:normal;writing-mode:lr-tb;fill:#000000;fill-opacity:1;fill-rule:nonzero;stroke:none;font-family:Helvetica;-inkscape-font-specification:Helvetica">98</tspan></text>
</g><path
       inkscape:connector-curvature="0"
       id="path86"
       style="fill:none;stroke:#000000;stroke-width:1.5;stroke-linecap:butt;stroke-linejoin:miter;stroke-miterlimit:3.79999995;stroke-opacity:1;stroke-dasharray:none"
       d="m 296.6,22.4 0,3.15 m 0,205.4 0,-3.15" /><g
       id="g88"><text
         id="text90"
         transform="matrix(1,0,0,-1,293.682,13.0648)"><tspan
           id="tspan92"
           sodipodi:role="line"
           y="0"
           x="0 3.892"
           style="font-size:7px;font-variant:normal;font-weight:normal;writing-mode:lr-tb;fill:#000000;fill-opacity:1;fill-rule:nonzero;stroke:none;font-family:Helvetica;-inkscape-font-specification:Helvetica">99</tspan></text>
</g><path
       inkscape:connector-curvature="0"
       id="path94"
       style="fill:none;stroke:#000000;stroke-width:1.5;stroke-linecap:butt;stroke-linejoin:miter;stroke-miterlimit:3.79999995;stroke-opacity:1;stroke-dasharray:none"
       d="m 347.35,22.4 0,3.15 m 0,205.4 0,-3.15" /><g
       id="g96"><text
         id="text98"
         transform="matrix(1,0,0,-1,342.485,13.0648)"><tspan
           id="tspan100"
           sodipodi:role="line"
           y="0"
           x="0 3.892 7.7839999"
           style="font-size:7px;font-variant:normal;font-weight:normal;writing-mode:lr-tb;fill:#000000;fill-opacity:1;fill-rule:nonzero;stroke:none;font-family:Helvetica;-inkscape-font-specification:Helvetica">100</tspan></text>
</g><path
       inkscape:connector-curvature="0"
       id="path102"
       style="fill:none;stroke:#000000;stroke-width:1.5;stroke-linecap:butt;stroke-linejoin:miter;stroke-miterlimit:3.79999995;stroke-opacity:1;stroke-dasharray:none"
       d="m 42.7,22.4 304.65,0 0,208.55 -304.65,0 0,-208.55 z" /><g
       id="g104"><text
         id="text106"
         transform="matrix(0,1,1,0,7.93516,100.979)"><tspan
           id="tspan108"
           sodipodi:role="line"
           y="0"
           x="0 3.892 5.8379998 9.3380003 13.23 14.784 20.615 24.507 26.837999 28.392 31.892 33.838001 36.168999 40.061001 43.952999 47.845001"
           style="font-size:7px;font-variant:normal;font-weight:normal;writing-mode:lr-tb;fill:#000000;fill-opacity:1;fill-rule:nonzero;stroke:none;font-family:Helvetica;-inkscape-font-specification:Helvetica"># chimeric reads</tspan></text>
<text
         id="text110"
         transform="matrix(1,0,0,-1,170.88,2.56484)"><tspan
           id="tspan112"
           sodipodi:role="line"
           y="0"
           x="0 4.6690001 8.5609999 10.892 14.392 18.284 22.176001 24.122 26.068001 27.622 31.514 35.405998 39.298 41.243999 42.798 44.743999"
           style="font-size:7px;font-variant:normal;font-weight:normal;writing-mode:lr-tb;fill:#000000;fill-opacity:1;fill-rule:nonzero;stroke:none;font-family:Helvetica;-inkscape-font-specification:Helvetica">Percent identity</tspan><tspan
           id="tspan114"
           sodipodi:role="line"
           y="-236.55"
           x="-26.444901 -21.3909 -17.498899 -15.9449 -10.1139 -6.2219 -3.8908999 -2.3369 1.1631 3.1091001 5.4401002 9.3320999 13.2241 17.1161 20.6161 22.562099 26.062099 29.562099 31.508101 33.454102 39.285099 43.177101 45.1231 48.6231 52.515099 54.461102 58.3531 62.245098 66.1371 67.691101 69.245102 71.191101"
           style="font-size:7px;font-variant:normal;font-weight:normal;writing-mode:lr-tb;fill:#000000;fill-opacity:1;fill-rule:nonzero;stroke:none;font-family:Helvetica;-inkscape-font-specification:Helvetica">Chimeric reads vs. match quality</tspan></text>
</g><path
       inkscape:connector-curvature="0"
       id="path126"
       style="fill:none;stroke:#00ff00;stroke-width:0.75;stroke-linecap:butt;stroke-linejoin:miter;stroke-miterlimit:3.79999995;stroke-opacity:1;stroke-dasharray:none"
       d="m 42.7,226.8 50.8,-3.7 50.75,-17.75 50.8,-16.95 50.75,-8.5 50.8,-5.15 50.75,1.8"
       sodipodi:nodetypes="ccccccc" /><path
       inkscape:connector-curvature="0"
       id="path128"
       style="fill:none;stroke:#00ff00;stroke-width:0.75;stroke-linecap:butt;stroke-linejoin:miter;stroke-miterlimit:3.79999995;stroke-opacity:1;stroke-dasharray:none"
       d="m 42.7,225.225 0,3.15" /><path
       inkscape:connector-curvature="0"
       id="path130"
       style="fill:none;stroke:#00ff00;stroke-width:0.75;stroke-linecap:butt;stroke-linejoin:miter;stroke-miterlimit:3.79999995;stroke-opacity:1;stroke-dasharray:none"
       d="m 41.125,226.8 3.15,0" /><path
       inkscape:connector-curvature="0"
       id="path132"
       style="fill:none;stroke:#00ff00;stroke-width:0.75;stroke-linecap:butt;stroke-linejoin:miter;stroke-miterlimit:3.79999995;stroke-opacity:1;stroke-dasharray:none"
       d="m 93.5,221.525 0,3.15" /><path
       inkscape:connector-curvature="0"
       id="path134"
       style="fill:none;stroke:#00ff00;stroke-width:0.75;stroke-linecap:butt;stroke-linejoin:miter;stroke-miterlimit:3.79999995;stroke-opacity:1;stroke-dasharray:none"
       d="m 91.925,223.1 3.15,0" /><path
       inkscape:connector-curvature="0"
       id="path136"
       style="fill:none;stroke:#00ff00;stroke-width:0.75;stroke-linecap:butt;stroke-linejoin:miter;stroke-miterlimit:3.79999995;stroke-opacity:1;stroke-dasharray:none"
       d="m 144.25,203.775 0,3.15" /><path
       inkscape:connector-curvature="0"
       id="path138"
       style="fill:none;stroke:#00ff00;stroke-width:0.75;stroke-linecap:butt;stroke-linejoin:miter;stroke-miterlimit:3.79999995;stroke-opacity:1;stroke-dasharray:none"
       d="m 142.675,205.35 3.15,0" /><path
       inkscape:connector-curvature="0"
       id="path140"
       style="fill:none;stroke:#00ff00;stroke-width:0.75;stroke-linecap:butt;stroke-linejoin:miter;stroke-miterlimit:3.79999995;stroke-opacity:1;stroke-dasharray:none"
       d="m 195.05,186.825 0,3.15" /><path
       inkscape:connector-curvature="0"
       id="path142"
       style="fill:none;stroke:#00ff00;stroke-width:0.75;stroke-linecap:butt;stroke-linejoin:miter;stroke-miterlimit:3.79999995;stroke-opacity:1;stroke-dasharray:none"
       d="m 193.475,188.4 3.15,0" /><path
       inkscape:connector-curvature="0"
       id="path144"
       style="fill:none;stroke:#00ff00;stroke-width:0.75;stroke-linecap:butt;stroke-linejoin:miter;stroke-miterlimit:3.79999995;stroke-opacity:1;stroke-dasharray:none"
       d="m 245.8,178.325 0,3.15" /><path
       inkscape:connector-curvature="0"
       id="path146"
       style="fill:none;stroke:#00ff00;stroke-width:0.75;stroke-linecap:butt;stroke-linejoin:miter;stroke-miterlimit:3.79999995;stroke-opacity:1;stroke-dasharray:none"
       d="m 244.225,179.9 3.15,0" /><path
       inkscape:connector-curvature="0"
       id="path148"
       style="fill:none;stroke:#00ff00;stroke-width:0.75;stroke-linecap:butt;stroke-linejoin:miter;stroke-miterlimit:3.79999995;stroke-opacity:1;stroke-dasharray:none"
       d="m 296.6,173.175 0,3.15" /><path
       inkscape:connector-curvature="0"
       id="path150"
       style="fill:none;stroke:#00ff00;stroke-width:0.75;stroke-linecap:butt;stroke-linejoin:miter;stroke-miterlimit:3.79999995;stroke-opacity:1;stroke-dasharray:none"
       d="m 295.025,174.75 3.15,0" /><path
       inkscape:connector-curvature="0"
       id="path152"
       style="fill:none;stroke:#00ff00;stroke-width:0.75;stroke-linecap:butt;stroke-linejoin:miter;stroke-miterlimit:3.79999995;stroke-opacity:1;stroke-dasharray:none"
       d="m 347.35,174.975 0,3.15" /><path
       inkscape:connector-curvature="0"
       id="path154"
       style="fill:none;stroke:#00ff00;stroke-width:0.75;stroke-linecap:butt;stroke-linejoin:miter;stroke-miterlimit:3.79999995;stroke-opacity:1;stroke-dasharray:none"
       d="m 345.775,176.55 3.15,0" /><path
       inkscape:connector-curvature="0"
       id="path166"
       style="fill:none;stroke:#0000ff;stroke-width:0.75;stroke-linecap:butt;stroke-linejoin:miter;stroke-miterlimit:3.79999995;stroke-opacity:1;stroke-dasharray:none"
       d="m 42.7,215.2 50.8,-2.55 50.75,-11.4 50.8,-10.1 50.75,-6.4 50.8,-6.2 50.75,2.3"
       sodipodi:nodetypes="ccccccc" /><path
       inkscape:connector-curvature="0"
       id="path168"
       style="fill:none;stroke:#0000ff;stroke-width:0.75;stroke-linecap:butt;stroke-linejoin:miter;stroke-miterlimit:3.79999995;stroke-opacity:1;stroke-dasharray:none"
       d="m 41.125,216.775 3.15,-3.15" /><path
       inkscape:connector-curvature="0"
       id="path170"
       style="fill:none;stroke:#0000ff;stroke-width:0.75;stroke-linecap:butt;stroke-linejoin:miter;stroke-miterlimit:3.79999995;stroke-opacity:1;stroke-dasharray:none"
       d="m 41.125,213.625 3.15,3.15" /><path
       inkscape:connector-curvature="0"
       id="path172"
       style="fill:none;stroke:#0000ff;stroke-width:0.75;stroke-linecap:butt;stroke-linejoin:miter;stroke-miterlimit:3.79999995;stroke-opacity:1;stroke-dasharray:none"
       d="m 91.925,214.225 3.15,-3.15" /><path
       inkscape:connector-curvature="0"
       id="path174"
       style="fill:none;stroke:#0000ff;stroke-width:0.75;stroke-linecap:butt;stroke-linejoin:miter;stroke-miterlimit:3.79999995;stroke-opacity:1;stroke-dasharray:none"
       d="m 91.925,211.075 3.15,3.15" /><path
       inkscape:connector-curvature="0"
       id="path176"
       style="fill:none;stroke:#0000ff;stroke-width:0.75;stroke-linecap:butt;stroke-linejoin:miter;stroke-miterlimit:3.79999995;stroke-opacity:1;stroke-dasharray:none"
       d="m 142.675,202.825 3.15,-3.15" /><path
       inkscape:connector-curvature="0"
       id="path178"
       style="fill:none;stroke:#0000ff;stroke-width:0.75;stroke-linecap:butt;stroke-linejoin:miter;stroke-miterlimit:3.79999995;stroke-opacity:1;stroke-dasharray:none"
       d="m 142.675,199.675 3.15,3.15" /><path
       inkscape:connector-curvature="0"
       id="path180"
       style="fill:none;stroke:#0000ff;stroke-width:0.75;stroke-linecap:butt;stroke-linejoin:miter;stroke-miterlimit:3.79999995;stroke-opacity:1;stroke-dasharray:none"
       d="m 193.475,192.725 3.15,-3.15" /><path
       inkscape:connector-curvature="0"
       id="path182"
       style="fill:none;stroke:#0000ff;stroke-width:0.75;stroke-linecap:butt;stroke-linejoin:miter;stroke-miterlimit:3.79999995;stroke-opacity:1;stroke-dasharray:none"
       d="m 193.475,189.575 3.15,3.15" /><path
       inkscape:connector-curvature="0"
       id="path184"
       style="fill:none;stroke:#0000ff;stroke-width:0.75;stroke-linecap:butt;stroke-linejoin:miter;stroke-miterlimit:3.79999995;stroke-opacity:1;stroke-dasharray:none"
       d="m 244.225,186.325 3.15,-3.15" /><path
       inkscape:connector-curvature="0"
       id="path186"
       style="fill:none;stroke:#0000ff;stroke-width:0.75;stroke-linecap:butt;stroke-linejoin:miter;stroke-miterlimit:3.79999995;stroke-opacity:1;stroke-dasharray:none"
       d="m 244.225,183.175 3.15,3.15" /><path
       inkscape:connector-curvature="0"
       id="path188"
       style="fill:none;stroke:#0000ff;stroke-width:0.75;stroke-linecap:butt;stroke-linejoin:miter;stroke-miterlimit:3.79999995;stroke-opacity:1;stroke-dasharray:none"
       d="m 295.025,180.125 3.15,-3.15" /><path
       inkscape:connector-curvature="0"
       id="path190"
       style="fill:none;stroke:#0000ff;stroke-width:0.75;stroke-linecap:butt;stroke-linejoin:miter;stroke-miterlimit:3.79999995;stroke-opacity:1;stroke-dasharray:none"
       d="m 295.025,176.975 3.15,3.15" /><path
       inkscape:connector-curvature="0"
       id="path192"
       style="fill:none;stroke:#0000ff;stroke-width:0.75;stroke-linecap:butt;stroke-linejoin:miter;stroke-miterlimit:3.79999995;stroke-opacity:1;stroke-dasharray:none"
       d="m 345.775,182.425 3.15,-3.15" /><path
       inkscape:connector-curvature="0"
       id="path194"
       style="fill:none;stroke:#0000ff;stroke-width:0.75;stroke-linecap:butt;stroke-linejoin:miter;stroke-miterlimit:3.79999995;stroke-opacity:1;stroke-dasharray:none"
       d="m 345.775,179.275 3.15,3.15" /><path
       inkscape:connector-curvature="0"
       id="path206"
       style="fill:none;stroke:#ff00ff;stroke-width:0.75;stroke-linecap:butt;stroke-linejoin:miter;stroke-miterlimit:3.79999995;stroke-opacity:1;stroke-dasharray:none"
       d="m 42.7,213.7 50.8,-0.9 50.75,-3.9 50.8,-2.15 50.75,-3 50.8,-1.95 50.75,0.7"
       sodipodi:nodetypes="ccccccc" /><path
       inkscape:connector-curvature="0"
       id="path208"
       style="fill:none;stroke:#ff00ff;stroke-width:0.75;stroke-linecap:butt;stroke-linejoin:miter;stroke-miterlimit:3.79999995;stroke-opacity:1;stroke-dasharray:none"
       d="m 42.7,212.125 0,3.15" /><path
       inkscape:connector-curvature="0"
       id="path210"
       style="fill:none;stroke:#ff00ff;stroke-width:0.75;stroke-linecap:butt;stroke-linejoin:miter;stroke-miterlimit:3.79999995;stroke-opacity:1;stroke-dasharray:none"
       d="m 41.125,213.7 3.15,0" /><path
       inkscape:connector-curvature="0"
       id="path212"
       style="fill:none;stroke:#ff00ff;stroke-width:0.75;stroke-linecap:butt;stroke-linejoin:miter;stroke-miterlimit:3.79999995;stroke-opacity:1;stroke-dasharray:none"
       d="m 41.125,215.275 3.15,-3.15" /><path
       inkscape:connector-curvature="0"
       id="path214"
       style="fill:none;stroke:#ff00ff;stroke-width:0.75;stroke-linecap:butt;stroke-linejoin:miter;stroke-miterlimit:3.79999995;stroke-opacity:1;stroke-dasharray:none"
       d="m 41.125,212.125 3.15,3.15" /><path
       inkscape:connector-curvature="0"
       id="path216"
       style="fill:none;stroke:#ff00ff;stroke-width:0.75;stroke-linecap:butt;stroke-linejoin:miter;stroke-miterlimit:3.79999995;stroke-opacity:1;stroke-dasharray:none"
       d="m 93.5,211.225 0,3.15" /><path
       inkscape:connector-curvature="0"
       id="path218"
       style="fill:none;stroke:#ff00ff;stroke-width:0.75;stroke-linecap:butt;stroke-linejoin:miter;stroke-miterlimit:3.79999995;stroke-opacity:1;stroke-dasharray:none"
       d="m 91.925,212.8 3.15,0" /><path
       inkscape:connector-curvature="0"
       id="path220"
       style="fill:none;stroke:#ff00ff;stroke-width:0.75;stroke-linecap:butt;stroke-linejoin:miter;stroke-miterlimit:3.79999995;stroke-opacity:1;stroke-dasharray:none"
       d="m 91.925,214.375 3.15,-3.15" /><path
       inkscape:connector-curvature="0"
       id="path222"
       style="fill:none;stroke:#ff00ff;stroke-width:0.75;stroke-linecap:butt;stroke-linejoin:miter;stroke-miterlimit:3.79999995;stroke-opacity:1;stroke-dasharray:none"
       d="m 91.925,211.225 3.15,3.15" /><path
       inkscape:connector-curvature="0"
       id="path224"
       style="fill:none;stroke:#ff00ff;stroke-width:0.75;stroke-linecap:butt;stroke-linejoin:miter;stroke-miterlimit:3.79999995;stroke-opacity:1;stroke-dasharray:none"
       d="m 144.25,207.325 0,3.15" /><path
       inkscape:connector-curvature="0"
       id="path226"
       style="fill:none;stroke:#ff00ff;stroke-width:0.75;stroke-linecap:butt;stroke-linejoin:miter;stroke-miterlimit:3.79999995;stroke-opacity:1;stroke-dasharray:none"
       d="m 142.675,208.9 3.15,0" /><path
       inkscape:connector-curvature="0"
       id="path228"
       style="fill:none;stroke:#ff00ff;stroke-width:0.75;stroke-linecap:butt;stroke-linejoin:miter;stroke-miterlimit:3.79999995;stroke-opacity:1;stroke-dasharray:none"
       d="m 142.675,210.475 3.15,-3.15" /><path
       inkscape:connector-curvature="0"
       id="path230"
       style="fill:none;stroke:#ff00ff;stroke-width:0.75;stroke-linecap:butt;stroke-linejoin:miter;stroke-miterlimit:3.79999995;stroke-opacity:1;stroke-dasharray:none"
       d="m 142.675,207.325 3.15,3.15" /><path
       inkscape:connector-curvature="0"
       id="path232"
       style="fill:none;stroke:#ff00ff;stroke-width:0.75;stroke-linecap:butt;stroke-linejoin:miter;stroke-miterlimit:3.79999995;stroke-opacity:1;stroke-dasharray:none"
       d="m 195.05,205.175 0,3.15" /><path
       inkscape:connector-curvature="0"
       id="path234"
       style="fill:none;stroke:#ff00ff;stroke-width:0.75;stroke-linecap:butt;stroke-linejoin:miter;stroke-miterlimit:3.79999995;stroke-opacity:1;stroke-dasharray:none"
       d="m 193.475,206.75 3.15,0" /><path
       inkscape:connector-curvature="0"
       id="path236"
       style="fill:none;stroke:#ff00ff;stroke-width:0.75;stroke-linecap:butt;stroke-linejoin:miter;stroke-miterlimit:3.79999995;stroke-opacity:1;stroke-dasharray:none"
       d="m 193.475,208.325 3.15,-3.15" /><path
       inkscape:connector-curvature="0"
       id="path238"
       style="fill:none;stroke:#ff00ff;stroke-width:0.75;stroke-linecap:butt;stroke-linejoin:miter;stroke-miterlimit:3.79999995;stroke-opacity:1;stroke-dasharray:none"
       d="m 193.475,205.175 3.15,3.15" /><path
       inkscape:connector-curvature="0"
       id="path240"
       style="fill:none;stroke:#ff00ff;stroke-width:0.75;stroke-linecap:butt;stroke-linejoin:miter;stroke-miterlimit:3.79999995;stroke-opacity:1;stroke-dasharray:none"
       d="m 245.8,202.175 0,3.15" /><path
       inkscape:connector-curvature="0"
       id="path242"
       style="fill:none;stroke:#ff00ff;stroke-width:0.75;stroke-linecap:butt;stroke-linejoin:miter;stroke-miterlimit:3.79999995;stroke-opacity:1;stroke-dasharray:none"
       d="m 244.225,203.75 3.15,0" /><path
       inkscape:connector-curvature="0"
       id="path244"
       style="fill:none;stroke:#ff00ff;stroke-width:0.75;stroke-linecap:butt;stroke-linejoin:miter;stroke-miterlimit:3.79999995;stroke-opacity:1;stroke-dasharray:none"
       d="m 244.225,205.325 3.15,-3.15" /><path
       inkscape:connector-curvature="0"
       id="path246"
       style="fill:none;stroke:#ff00ff;stroke-width:0.75;stroke-linecap:butt;stroke-linejoin:miter;stroke-miterlimit:3.79999995;stroke-opacity:1;stroke-dasharray:none"
       d="m 244.225,202.175 3.15,3.15" /><path
       inkscape:connector-curvature="0"
       id="path248"
       style="fill:none;stroke:#ff00ff;stroke-width:0.75;stroke-linecap:butt;stroke-linejoin:miter;stroke-miterlimit:3.79999995;stroke-opacity:1;stroke-dasharray:none"
       d="m 296.6,200.225 0,3.15" /><path
       inkscape:connector-curvature="0"
       id="path250"
       style="fill:none;stroke:#ff00ff;stroke-width:0.75;stroke-linecap:butt;stroke-linejoin:miter;stroke-miterlimit:3.79999995;stroke-opacity:1;stroke-dasharray:none"
       d="m 295.025,201.8 3.15,0" /><path
       inkscape:connector-curvature="0"
       id="path252"
       style="fill:none;stroke:#ff00ff;stroke-width:0.75;stroke-linecap:butt;stroke-linejoin:miter;stroke-miterlimit:3.79999995;stroke-opacity:1;stroke-dasharray:none"
       d="m 295.025,203.375 3.15,-3.15" /><path
       inkscape:connector-curvature="0"
       id="path254"
       style="fill:none;stroke:#ff00ff;stroke-width:0.75;stroke-linecap:butt;stroke-linejoin:miter;stroke-miterlimit:3.79999995;stroke-opacity:1;stroke-dasharray:none"
       d="m 295.025,200.225 3.15,3.15" /><path
       inkscape:connector-curvature="0"
       id="path256"
       style="fill:none;stroke:#ff00ff;stroke-width:0.75;stroke-linecap:butt;stroke-linejoin:miter;stroke-miterlimit:3.79999995;stroke-opacity:1;stroke-dasharray:none"
       d="m 347.35,200.925 0,3.15" /><path
       inkscape:connector-curvature="0"
       id="path258"
       style="fill:none;stroke:#ff00ff;stroke-width:0.75;stroke-linecap:butt;stroke-linejoin:miter;stroke-miterlimit:3.79999995;stroke-opacity:1;stroke-dasharray:none"
       d="m 345.775,202.5 3.15,0" /><path
       inkscape:connector-curvature="0"
       id="path260"
       style="fill:none;stroke:#ff00ff;stroke-width:0.75;stroke-linecap:butt;stroke-linejoin:miter;stroke-miterlimit:3.79999995;stroke-opacity:1;stroke-dasharray:none"
       d="m 345.775,204.075 3.15,-3.15" /><path
       inkscape:connector-curvature="0"
       id="path262"
       style="fill:none;stroke:#ff00ff;stroke-width:0.75;stroke-linecap:butt;stroke-linejoin:miter;stroke-miterlimit:3.79999995;stroke-opacity:1;stroke-dasharray:none"
       d="m 345.775,200.925 3.15,3.15" /><path
       inkscape:connector-curvature="0"
       id="path278"
       style="fill:none;stroke:#00ffff;stroke-width:0.75;stroke-linecap:butt;stroke-linejoin:miter;stroke-miterlimit:3.79999995;stroke-opacity:1;stroke-dasharray:none"
       d="m 42.7,217.65 50.8,-4.15 50.75,-18.95 50.8,-16.55 50.75,-7.55 50.8,-2.4 50.75,2.75"
       sodipodi:nodetypes="ccccccc" /><path
       inkscape:connector-curvature="0"
       id="path280"
       style="fill:none;stroke:#00ffff;stroke-width:0.75;stroke-linecap:butt;stroke-linejoin:miter;stroke-miterlimit:3.79999995;stroke-opacity:1;stroke-dasharray:none"
       d="m 41.125,216.075 3.15,0 0,3.15 -3.15,0 0,-3.15 z" /><path
       inkscape:connector-curvature="0"
       id="path282"
       style="fill:none;stroke:#00ffff;stroke-width:0.75;stroke-linecap:round;stroke-linejoin:miter;stroke-miterlimit:3.79999995;stroke-opacity:1;stroke-dasharray:none"
       d="m 42.7,217.65 0,0" /><path
       inkscape:connector-curvature="0"
       id="path284"
       style="fill:none;stroke:#00ffff;stroke-width:0.75;stroke-linecap:butt;stroke-linejoin:miter;stroke-miterlimit:3.79999995;stroke-opacity:1;stroke-dasharray:none"
       d="m 91.925,211.925 3.15,0 0,3.15 -3.15,0 0,-3.15 z" /><path
       inkscape:connector-curvature="0"
       id="path286"
       style="fill:none;stroke:#00ffff;stroke-width:0.75;stroke-linecap:round;stroke-linejoin:miter;stroke-miterlimit:3.79999995;stroke-opacity:1;stroke-dasharray:none"
       d="m 93.5,213.5 0,0" /><path
       inkscape:connector-curvature="0"
       id="path288"
       style="fill:none;stroke:#00ffff;stroke-width:0.75;stroke-linecap:butt;stroke-linejoin:miter;stroke-miterlimit:3.79999995;stroke-opacity:1;stroke-dasharray:none"
       d="m 142.675,192.975 3.15,0 0,3.15 -3.15,0 0,-3.15 z" /><path
       inkscape:connector-curvature="0"
       id="path290"
       style="fill:none;stroke:#00ffff;stroke-width:0.75;stroke-linecap:round;stroke-linejoin:miter;stroke-miterlimit:3.79999995;stroke-opacity:1;stroke-dasharray:none"
       d="m 144.25,194.55 0,0" /><path
       inkscape:connector-curvature="0"
       id="path292"
       style="fill:none;stroke:#00ffff;stroke-width:0.75;stroke-linecap:butt;stroke-linejoin:miter;stroke-miterlimit:3.79999995;stroke-opacity:1;stroke-dasharray:none"
       d="m 193.475,176.425 3.15,0 0,3.15 -3.15,0 0,-3.15 z" /><path
       inkscape:connector-curvature="0"
       id="path294"
       style="fill:none;stroke:#00ffff;stroke-width:0.75;stroke-linecap:round;stroke-linejoin:miter;stroke-miterlimit:3.79999995;stroke-opacity:1;stroke-dasharray:none"
       d="m 195.05,178 0,0" /><path
       inkscape:connector-curvature="0"
       id="path296"
       style="fill:none;stroke:#00ffff;stroke-width:0.75;stroke-linecap:butt;stroke-linejoin:miter;stroke-miterlimit:3.79999995;stroke-opacity:1;stroke-dasharray:none"
       d="m 244.225,168.875 3.15,0 0,3.15 -3.15,0 0,-3.15 z" /><path
       inkscape:connector-curvature="0"
       id="path298"
       style="fill:none;stroke:#00ffff;stroke-width:0.75;stroke-linecap:round;stroke-linejoin:miter;stroke-miterlimit:3.79999995;stroke-opacity:1;stroke-dasharray:none"
       d="m 245.8,170.45 0,0" /><path
       inkscape:connector-curvature="0"
       id="path300"
       style="fill:none;stroke:#00ffff;stroke-width:0.75;stroke-linecap:butt;stroke-linejoin:miter;stroke-miterlimit:3.79999995;stroke-opacity:1;stroke-dasharray:none"
       d="m 295.025,166.475 3.15,0 0,3.15 -3.15,0 0,-3.15 z" /><path
       inkscape:connector-curvature="0"
       id="path302"
       style="fill:none;stroke:#00ffff;stroke-width:0.75;stroke-linecap:round;stroke-linejoin:miter;stroke-miterlimit:3.79999995;stroke-opacity:1;stroke-dasharray:none"
       d="m 296.6,168.05 0,0" /><path
       inkscape:connector-curvature="0"
       id="path304"
       style="fill:none;stroke:#00ffff;stroke-width:0.75;stroke-linecap:butt;stroke-linejoin:miter;stroke-miterlimit:3.79999995;stroke-opacity:1;stroke-dasharray:none"
       d="m 345.775,169.225 3.15,0 0,3.15 -3.15,0 0,-3.15 z" /><path
       inkscape:connector-curvature="0"
       id="path306"
       style="fill:none;stroke:#00ffff;stroke-width:0.75;stroke-linecap:round;stroke-linejoin:miter;stroke-miterlimit:3.79999995;stroke-opacity:1;stroke-dasharray:none"
       d="m 347.35,170.8 0,0" /><path
       inkscape:connector-curvature="0"
       id="path384"
       style="fill:#ff4d00;fill-opacity:1;fill-rule:nonzero;stroke:none"
       d="m 44.275,147.35 c 0,0.87 -0.7055,1.575 -1.575,1.575 -0.8695,0 -1.575,-0.705 -1.575,-1.575 0,-0.87 0.7055,-1.575 1.575,-1.575 0.8695,0 1.575,0.705 1.575,1.575" /><path
       inkscape:connector-curvature="0"
       id="path386"
       style="fill:#ff4d00;fill-opacity:1;fill-rule:nonzero;stroke:none"
       d="m 95.075,146.45 c 0,0.87 -0.7055,1.575 -1.575,1.575 -0.8695,0 -1.575,-0.705 -1.575,-1.575 0,-0.87 0.7055,-1.575 1.575,-1.575 0.8695,0 1.575,0.705 1.575,1.575" /><path
       inkscape:connector-curvature="0"
       id="path388"
       style="fill:#ff4d00;fill-opacity:1;fill-rule:nonzero;stroke:none"
       d="m 145.825,135.45 c 0,0.87 -0.705,1.575 -1.575,1.575 -0.87,0 -1.575,-0.705 -1.575,-1.575 0,-0.87 0.705,-1.575 1.575,-1.575 0.87,0 1.575,0.705 1.575,1.575" /><path
       inkscape:connector-curvature="0"
       id="path390"
       style="fill:#ff4d00;fill-opacity:1;fill-rule:nonzero;stroke:none"
       d="m 196.625,127.85 c 0,0.87 -0.705,1.575 -1.575,1.575 -0.87,0 -1.575,-0.705 -1.575,-1.575 0,-0.87 0.705,-1.575 1.575,-1.575 0.87,0 1.575,0.705 1.575,1.575" /><path
       inkscape:connector-curvature="0"
       id="path392"
       style="fill:#ff4d00;fill-opacity:1;fill-rule:nonzero;stroke:none"
       d="m 247.375,124.15 c 0,0.87 -0.705,1.575 -1.575,1.575 -0.87,0 -1.575,-0.705 -1.575,-1.575 0,-0.87 0.705,-1.575 1.575,-1.575 0.87,0 1.575,0.705 1.575,1.575" /><path
       inkscape:connector-curvature="0"
       id="path394"
       style="fill:#ff4d00;fill-opacity:1;fill-rule:nonzero;stroke:none"
       d="m 298.175,125.3 c 0,0.87 -0.705,1.575 -1.575,1.575 -0.87,0 -1.575,-0.705 -1.575,-1.575 0,-0.87 0.705,-1.575 1.575,-1.575 0.87,0 1.575,0.705 1.575,1.575" /><path
       inkscape:connector-curvature="0"
       id="path396"
       style="fill:#ff4d00;fill-opacity:1;fill-rule:nonzero;stroke:none"
       d="m 348.925,129.3 c 0,0.87 -0.705,1.575 -1.575,1.575 -0.87,0 -1.575,-0.705 -1.575,-1.575 0,-0.87 0.705,-1.575 1.575,-1.575 0.87,0 1.575,0.705 1.575,1.575" /><path
       inkscape:connector-curvature="0"
       id="path406"
       style="fill:none;stroke:#808080;stroke-width:0.75;stroke-linecap:butt;stroke-linejoin:miter;stroke-miterlimit:3.79999995;stroke-opacity:1;stroke-dasharray:none"
       d="m 42.7,105.15 50.8,-1.6 50.75,-6.65 50.8,-7.5 50.75,-3.85 50.8,9.5 50.75,10.3"
       sodipodi:nodetypes="ccccccc" /><path
       inkscape:connector-curvature="0"
       id="path408"
       style="fill:none;stroke:#808080;stroke-width:0.75;stroke-linecap:butt;stroke-linejoin:miter;stroke-miterlimit:3.79999995;stroke-opacity:1;stroke-dasharray:none"
       d="m 42.7,106.914 -1.575,-2.552 3.15,0 -1.575,2.552 z" /><path
       inkscape:connector-curvature="0"
       id="path410"
       style="fill:none;stroke:#808080;stroke-width:0.75;stroke-linecap:round;stroke-linejoin:miter;stroke-miterlimit:3.79999995;stroke-opacity:1;stroke-dasharray:none"
       d="m 42.7,105.15 0,0" /><path
       inkscape:connector-curvature="0"
       id="path412"
       style="fill:none;stroke:#808080;stroke-width:0.75;stroke-linecap:butt;stroke-linejoin:miter;stroke-miterlimit:3.79999995;stroke-opacity:1;stroke-dasharray:none"
       d="m 93.5,105.314 -1.575,-2.552 3.15,0 -1.575,2.552 z" /><path
       inkscape:connector-curvature="0"
       id="path414"
       style="fill:none;stroke:#808080;stroke-width:0.75;stroke-linecap:round;stroke-linejoin:miter;stroke-miterlimit:3.79999995;stroke-opacity:1;stroke-dasharray:none"
       d="m 93.5,103.55 0,0" /><path
       inkscape:connector-curvature="0"
       id="path416"
       style="fill:none;stroke:#808080;stroke-width:0.75;stroke-linecap:butt;stroke-linejoin:miter;stroke-miterlimit:3.79999995;stroke-opacity:1;stroke-dasharray:none"
       d="m 144.25,98.6641 -1.575,-2.5516 3.15,0 -1.575,2.5516 z" /><path
       inkscape:connector-curvature="0"
       id="path418"
       style="fill:none;stroke:#808080;stroke-width:0.75;stroke-linecap:round;stroke-linejoin:miter;stroke-miterlimit:3.79999995;stroke-opacity:1;stroke-dasharray:none"
       d="m 144.25,96.9 0,0" /><path
       inkscape:connector-curvature="0"
       id="path420"
       style="fill:none;stroke:#808080;stroke-width:0.75;stroke-linecap:butt;stroke-linejoin:miter;stroke-miterlimit:3.79999995;stroke-opacity:1;stroke-dasharray:none"
       d="m 195.05,91.1641 -1.575,-2.5516 3.15,0 -1.575,2.5516 z" /><path
       inkscape:connector-curvature="0"
       id="path422"
       style="fill:none;stroke:#808080;stroke-width:0.75;stroke-linecap:round;stroke-linejoin:miter;stroke-miterlimit:3.79999995;stroke-opacity:1;stroke-dasharray:none"
       d="m 195.05,89.4 0,0" /><path
       inkscape:connector-curvature="0"
       id="path424"
       style="fill:none;stroke:#808080;stroke-width:0.75;stroke-linecap:butt;stroke-linejoin:miter;stroke-miterlimit:3.79999995;stroke-opacity:1;stroke-dasharray:none"
       d="m 245.8,87.3141 -1.575,-2.5516 3.15,0 -1.575,2.5516 z" /><path
       inkscape:connector-curvature="0"
       id="path426"
       style="fill:none;stroke:#808080;stroke-width:0.75;stroke-linecap:round;stroke-linejoin:miter;stroke-miterlimit:3.79999995;stroke-opacity:1;stroke-dasharray:none"
       d="m 245.8,85.55 0,0" /><path
       inkscape:connector-curvature="0"
       id="path428"
       style="fill:none;stroke:#808080;stroke-width:0.75;stroke-linecap:butt;stroke-linejoin:miter;stroke-miterlimit:3.79999995;stroke-opacity:1;stroke-dasharray:none"
       d="m 296.6,96.8141 -1.575,-2.5516 3.15,0 -1.575,2.5516 z" /><path
       inkscape:connector-curvature="0"
       id="path430"
       style="fill:none;stroke:#808080;stroke-width:0.75;stroke-linecap:round;stroke-linejoin:miter;stroke-miterlimit:3.79999995;stroke-opacity:1;stroke-dasharray:none"
       d="m 296.6,95.05 0,0" /><path
       inkscape:connector-curvature="0"
       id="path432"
       style="fill:none;stroke:#808080;stroke-width:0.75;stroke-linecap:butt;stroke-linejoin:miter;stroke-miterlimit:3.79999995;stroke-opacity:1;stroke-dasharray:none"
       d="m 347.35,107.114 -1.575,-2.552 3.15,0 -1.575,2.552 z" /><path
       inkscape:connector-curvature="0"
       id="path434"
       style="fill:none;stroke:#808080;stroke-width:0.75;stroke-linecap:round;stroke-linejoin:miter;stroke-miterlimit:3.79999995;stroke-opacity:1;stroke-dasharray:none"
       d="m 347.35,105.35 0,0" /><path
       inkscape:connector-curvature="0"
       id="path440"
       style="fill:none;stroke:#000000;stroke-width:1.5;stroke-linecap:butt;stroke-linejoin:miter;stroke-miterlimit:3.79999995;stroke-opacity:1;stroke-dasharray:none"
       d="m 42.7,22.4 304.65,0 0,208.55 -304.65,0 0,-208.55 z" /><path
       style="fill:none;stroke:#000000;stroke-width:1.60000002;stroke-linecap:butt;stroke-linejoin:miter;stroke-miterlimit:4;stroke-opacity:1;stroke-dasharray:none;marker-end:url(#Arrow1Mend)"
       d="M 100.11551,72.794112 C 124.12324,96.80184 124.12324,96.80184 124.12324,96.80184"
       id="path3635"
       inkscape:connector-curvature="0" /><text
       xml:space="preserve"
       style="font-size:11.19999981px;font-style:normal;font-variant:normal;font-weight:normal;font-stretch:normal;line-height:125%;letter-spacing:0px;word-spacing:0px;fill:#000000;fill-opacity:1;stroke:none;font-family:Liberation Sans;-inkscape-font-specification:Liberation Sans"
       x="80.057701"
       y="-64.245621"
       id="text4849"
       sodipodi:linespacing="125%"
       transform="scale(1,-1)"><tspan
         sodipodi:role="line"
         id="tspan4851"
         x="80.057701"
         y="-64.245621">Quorum</tspan></text>
<path
       inkscape:connector-curvature="0"
       id="path4853"
       d="m 113.57439,121.40141 42.29933,10.28903"
       style="fill:none;stroke:#000000;stroke-width:1.60000002;stroke-linecap:butt;stroke-linejoin:miter;stroke-miterlimit:4;stroke-opacity:1;stroke-dasharray:none;marker-end:url(#Arrow1Mend)"
       sodipodi:nodetypes="cc" /><text
       xml:space="preserve"
       style="font-size:11.19999981px;font-style:normal;font-variant:normal;font-weight:normal;font-stretch:normal;line-height:125%;letter-spacing:0px;word-spacing:0px;fill:#000000;fill-opacity:1;stroke:none;font-family:Liberation Sans;-inkscape-font-specification:Liberation Sans"
       x="79.32901"
       y="-117.97173"
       id="text4855"
       sodipodi:linespacing="125%"
       transform="scale(1,-1)"><tspan
         sodipodi:role="line"
         id="tspan4857"
         x="79.32901"
         y="-117.97173">Quake</tspan></text>
<path
       style="fill:none;stroke:#000000;stroke-width:1.6;stroke-linecap:butt;stroke-linejoin:miter;stroke-miterlimit:4;stroke-opacity:1;stroke-dasharray:none;marker-end:url(#Arrow1Mend)"
       d="m 112.73522,180.2147 c 34.29674,9.71742 34.29674,9.71742 34.29674,9.71742"
       id="path4859"
       inkscape:connector-curvature="0" /><text
       xml:space="preserve"
       style="font-size:11.19999981px;font-style:normal;font-variant:normal;font-weight:normal;font-stretch:normal;line-height:125%;letter-spacing:0px;word-spacing:0px;fill:#000000;fill-opacity:1;stroke:none;font-family:Liberation Sans;-inkscape-font-specification:Liberation Sans"
       x="82.113762"
       y="-176.26761"
       id="text6159"
       sodipodi:linespacing="125%"
       transform="scale(1,-1)"><tspan
         sodipodi:role="line"
         id="tspan6161"
         x="82.113762"
         y="-176.26761">Coral</tspan></text>
<path
       style="fill:none;stroke:#000000;stroke-width:1.6;stroke-linecap:butt;stroke-linejoin:miter;stroke-miterlimit:4;stroke-opacity:1;stroke-dasharray:none;marker-end:url(#Arrow1Mend)"
       d="m 208.90808,154.00982 7.62143,26.89913"
       id="path5593"
       inkscape:connector-curvature="0" /><text
       xml:space="preserve"
       style="font-size:11.19999981px;font-style:normal;font-variant:normal;font-weight:normal;font-stretch:normal;line-height:125%;letter-spacing:0px;word-spacing:0px;fill:#000000;fill-opacity:1;stroke:none;font-family:Liberation Sans;-inkscape-font-specification:Liberation Sans"
       x="178.42242"
       y="-143.25015"
       id="text6155"
       sodipodi:linespacing="125%"
       transform="scale(1,-1)"><tspan
         sodipodi:role="line"
         id="tspan6157"
         x="178.42242"
         y="-143.25015">Uncorrected</tspan></text>
<g
       id="g4525"
       transform="translate(32,-3.2)"><path
         inkscape:connector-curvature="0"
         id="path5777"
         d="m 272.77623,191.57601 -21.96762,-5.82815"
         style="fill:none;stroke:#000000;stroke-width:1.60000002;stroke-linecap:butt;stroke-linejoin:miter;stroke-miterlimit:4;stroke-opacity:1;stroke-dasharray:none;marker-end:url(#Arrow1Mend)" /><text
         transform="scale(1,-1)"
         sodipodi:linespacing="125%"
         id="text6163"
         y="-187.54114"
         x="274.31445"
         style="font-size:11.19999981px;font-style:normal;font-variant:normal;font-weight:normal;font-stretch:normal;line-height:125%;letter-spacing:0px;word-spacing:0px;fill:#000000;fill-opacity:1;stroke:none;font-family:Liberation Sans;-inkscape-font-specification:Liberation Sans"
         xml:space="preserve"><tspan
           y="-187.54114"
           x="274.31445"
           id="tspan6165"
           sodipodi:role="line">Echo</tspan></text>
</g><path
       style="fill:none;stroke:#000000;stroke-width:1.6;stroke-linecap:butt;stroke-linejoin:miter;stroke-miterlimit:4;stroke-opacity:1;stroke-dasharray:none;marker-end:url(#Arrow1Mend)"
       d="m 248.76124,216.19311 -27.79577,-8.96638"
       id="path5963"
       inkscape:connector-curvature="0" /><text
       xml:space="preserve"
       style="font-size:11.19999981px;font-style:normal;font-variant:normal;font-weight:normal;font-stretch:normal;line-height:125%;letter-spacing:0px;word-spacing:0px;fill:#000000;fill-opacity:1;stroke:none;font-family:Liberation Sans;-inkscape-font-specification:Liberation Sans"
       x="251.00282"
       y="-213.05489"
       id="text6147"
       sodipodi:linespacing="125%"
       transform="scale(1,-1)"><tspan
         sodipodi:role="line"
         x="251.00282"
         y="-213.05489"
         id="tspan6151">Hitec</tspan></text>
</g></svg>