<?xml version="1.0" encoding="UTF-8" standalone="no"?>
<!-- Created with Inkscape (http://www.inkscape.org/) -->

<svg
   xmlns:dc="http://purl.org/dc/elements/1.1/"
   xmlns:cc="http://creativecommons.org/ns#"
   xmlns:rdf="http://www.w3.org/1999/02/22-rdf-syntax-ns#"
   xmlns:svg="http://www.w3.org/2000/svg"
   xmlns="http://www.w3.org/2000/svg"
   xmlns:sodipodi="http://sodipodi.sourceforge.net/DTD/sodipodi-0.dtd"
   xmlns:inkscape="http://www.inkscape.org/namespaces/inkscape"
   id="svg2"
   version="1.1"
   inkscape:version="0.48.1 r9760"
   width="450"
   height="315"
   xml:space="preserve"
   sodipodi:docname="error_vs_reads_histogram.pdf"><metadata
     id="metadata8"><rdf:RDF><cc:Work
         rdf:about=""><dc:format>image/svg+xml</dc:format><dc:type
           rdf:resource="http://purl.org/dc/dcmitype/StillImage" /><dc:title></dc:title></cc:Work></rdf:RDF></metadata><defs
     id="defs6" /><sodipodi:namedview
     pagecolor="#ffffff"
     bordercolor="#666666"
     borderopacity="1"
     objecttolerance="10"
     gridtolerance="10"
     guidetolerance="10"
     inkscape:pageopacity="0"
     inkscape:pageshadow="2"
     inkscape:window-width="1280"
     inkscape:window-height="1004"
     id="namedview4"
     showgrid="false"
     inkscape:zoom="1.85"
     inkscape:cx="225"
     inkscape:cy="169.99138"
     inkscape:window-x="1280"
     inkscape:window-y="0"
     inkscape:window-maximized="1"
     inkscape:current-layer="g10" /><g
     id="g10"
     inkscape:groupmode="layer"
     inkscape:label="error_vs_reads_histogram"
     transform="matrix(1.25,0,0,-1.25,0,315)"><path
       inkscape:connector-curvature="0"
       id="path14"
       style="fill:none;stroke:#000000;stroke-width:1.5;stroke-linecap:butt;stroke-linejoin:miter;stroke-miterlimit:3.79999995;stroke-opacity:1;stroke-dasharray:none"
       d="m 34.3,22.4 3.15,0 m 309.9,0 -3.15,0" /><g
       id="g16"><text
         id="text18"
         transform="matrix(1,0,0,-1,26.2085,20.0648)"><tspan
           id="tspan20"
           y="0"
           x="0"
           style="font-size:7px;font-variant:normal;font-weight:normal;writing-mode:lr-tb;fill:#000000;fill-opacity:1;fill-rule:nonzero;stroke:none;font-family:Helvetica;-inkscape-font-specification:Helvetica">0</tspan></text>
</g><path
       inkscape:connector-curvature="0"
       id="path22"
       style="fill:none;stroke:#000000;stroke-width:1.5;stroke-linecap:butt;stroke-linejoin:miter;stroke-miterlimit:3.79999995;stroke-opacity:1;stroke-dasharray:none"
       d="m 34.3,43.25 3.15,0 m 309.9,0 -3.15,0" /><g
       id="g24"><text
         id="text26"
         transform="matrix(1,0,0,-1,20.371,40.9148)"><tspan
           id="tspan28"
           sodipodi:role="line"
           y="0"
           x="0 3.892 5.8379998"
           style="font-size:7px;font-variant:normal;font-weight:normal;writing-mode:lr-tb;fill:#000000;fill-opacity:1;fill-rule:nonzero;stroke:none;font-family:Helvetica;-inkscape-font-specification:Helvetica">0.1</tspan></text>
</g><path
       inkscape:connector-curvature="0"
       id="path30"
       style="fill:none;stroke:#000000;stroke-width:1.5;stroke-linecap:butt;stroke-linejoin:miter;stroke-miterlimit:3.79999995;stroke-opacity:1;stroke-dasharray:none"
       d="m 34.3,64.1 3.15,0 m 309.9,0 -3.15,0" /><g
       id="g32"><text
         id="text34"
         transform="matrix(1,0,0,-1,20.371,61.7648)"><tspan
           id="tspan36"
           sodipodi:role="line"
           y="0"
           x="0 3.892 5.8379998"
           style="font-size:7px;font-variant:normal;font-weight:normal;writing-mode:lr-tb;fill:#000000;fill-opacity:1;fill-rule:nonzero;stroke:none;font-family:Helvetica;-inkscape-font-specification:Helvetica">0.2</tspan></text>
</g><path
       inkscape:connector-curvature="0"
       id="path38"
       style="fill:none;stroke:#000000;stroke-width:1.5;stroke-linecap:butt;stroke-linejoin:miter;stroke-miterlimit:3.79999995;stroke-opacity:1;stroke-dasharray:none"
       d="m 34.3,84.95 3.15,0 m 309.9,0 -3.15,0" /><g
       id="g40"><text
         id="text42"
         transform="matrix(1,0,0,-1,20.371,82.6148)"><tspan
           id="tspan44"
           sodipodi:role="line"
           y="0"
           x="0 3.892 5.8379998"
           style="font-size:7px;font-variant:normal;font-weight:normal;writing-mode:lr-tb;fill:#000000;fill-opacity:1;fill-rule:nonzero;stroke:none;font-family:Helvetica;-inkscape-font-specification:Helvetica">0.3</tspan></text>
</g><path
       inkscape:connector-curvature="0"
       id="path46"
       style="fill:none;stroke:#000000;stroke-width:1.5;stroke-linecap:butt;stroke-linejoin:miter;stroke-miterlimit:3.79999995;stroke-opacity:1;stroke-dasharray:none"
       d="m 34.3,105.8 3.15,0 m 309.9,0 -3.15,0" /><g
       id="g48"><text
         id="text50"
         transform="matrix(1,0,0,-1,20.371,103.465)"><tspan
           id="tspan52"
           sodipodi:role="line"
           y="0"
           x="0 3.892 5.8379998"
           style="font-size:7px;font-variant:normal;font-weight:normal;writing-mode:lr-tb;fill:#000000;fill-opacity:1;fill-rule:nonzero;stroke:none;font-family:Helvetica;-inkscape-font-specification:Helvetica">0.4</tspan></text>
</g><path
       inkscape:connector-curvature="0"
       id="path54"
       style="fill:none;stroke:#000000;stroke-width:1.5;stroke-linecap:butt;stroke-linejoin:miter;stroke-miterlimit:3.79999995;stroke-opacity:1;stroke-dasharray:none"
       d="m 34.3,126.7 3.15,0 m 309.9,0 -3.15,0" /><g
       id="g56"><text
         id="text58"
         transform="matrix(1,0,0,-1,20.371,124.365)"><tspan
           id="tspan60"
           sodipodi:role="line"
           y="0"
           x="0 3.892 5.8379998"
           style="font-size:7px;font-variant:normal;font-weight:normal;writing-mode:lr-tb;fill:#000000;fill-opacity:1;fill-rule:nonzero;stroke:none;font-family:Helvetica;-inkscape-font-specification:Helvetica">0.5</tspan></text>
</g><path
       inkscape:connector-curvature="0"
       id="path62"
       style="fill:none;stroke:#000000;stroke-width:1.5;stroke-linecap:butt;stroke-linejoin:miter;stroke-miterlimit:3.79999995;stroke-opacity:1;stroke-dasharray:none"
       d="m 34.3,147.55 3.15,0 m 309.9,0 -3.15,0" /><g
       id="g64"><text
         id="text66"
         transform="matrix(1,0,0,-1,20.371,145.215)"><tspan
           id="tspan68"
           sodipodi:role="line"
           y="0"
           x="0 3.892 5.8379998"
           style="font-size:7px;font-variant:normal;font-weight:normal;writing-mode:lr-tb;fill:#000000;fill-opacity:1;fill-rule:nonzero;stroke:none;font-family:Helvetica;-inkscape-font-specification:Helvetica">0.6</tspan></text>
</g><path
       inkscape:connector-curvature="0"
       id="path70"
       style="fill:none;stroke:#000000;stroke-width:1.5;stroke-linecap:butt;stroke-linejoin:miter;stroke-miterlimit:3.79999995;stroke-opacity:1;stroke-dasharray:none"
       d="m 34.3,168.4 3.15,0 m 309.9,0 -3.15,0" /><g
       id="g72"><text
         id="text74"
         transform="matrix(1,0,0,-1,20.371,166.065)"><tspan
           id="tspan76"
           sodipodi:role="line"
           y="0"
           x="0 3.892 5.8379998"
           style="font-size:7px;font-variant:normal;font-weight:normal;writing-mode:lr-tb;fill:#000000;fill-opacity:1;fill-rule:nonzero;stroke:none;font-family:Helvetica;-inkscape-font-specification:Helvetica">0.7</tspan></text>
</g><path
       inkscape:connector-curvature="0"
       id="path78"
       style="fill:none;stroke:#000000;stroke-width:1.5;stroke-linecap:butt;stroke-linejoin:miter;stroke-miterlimit:3.79999995;stroke-opacity:1;stroke-dasharray:none"
       d="m 34.3,189.25 3.15,0 m 309.9,0 -3.15,0" /><g
       id="g80"><text
         id="text82"
         transform="matrix(1,0,0,-1,20.371,186.915)"><tspan
           id="tspan84"
           sodipodi:role="line"
           y="0"
           x="0 3.892 5.8379998"
           style="font-size:7px;font-variant:normal;font-weight:normal;writing-mode:lr-tb;fill:#000000;fill-opacity:1;fill-rule:nonzero;stroke:none;font-family:Helvetica;-inkscape-font-specification:Helvetica">0.8</tspan></text>
</g><path
       inkscape:connector-curvature="0"
       id="path86"
       style="fill:none;stroke:#000000;stroke-width:1.5;stroke-linecap:butt;stroke-linejoin:miter;stroke-miterlimit:3.79999995;stroke-opacity:1;stroke-dasharray:none"
       d="m 34.3,210.1 3.15,0 m 309.9,0 -3.15,0" /><g
       id="g88"><text
         id="text90"
         transform="matrix(1,0,0,-1,20.371,207.765)"><tspan
           id="tspan92"
           sodipodi:role="line"
           y="0"
           x="0 3.892 5.8379998"
           style="font-size:7px;font-variant:normal;font-weight:normal;writing-mode:lr-tb;fill:#000000;fill-opacity:1;fill-rule:nonzero;stroke:none;font-family:Helvetica;-inkscape-font-specification:Helvetica">0.9</tspan></text>
</g><path
       inkscape:connector-curvature="0"
       id="path94"
       style="fill:none;stroke:#000000;stroke-width:1.5;stroke-linecap:butt;stroke-linejoin:miter;stroke-miterlimit:3.79999995;stroke-opacity:1;stroke-dasharray:none"
       d="m 34.3,230.95 3.15,0 m 309.9,0 -3.15,0" /><g
       id="g96"><text
         id="text98"
         transform="matrix(1,0,0,-1,26.2085,228.615)"><tspan
           id="tspan100"
           y="0"
           x="0"
           style="font-size:7px;font-variant:normal;font-weight:normal;writing-mode:lr-tb;fill:#000000;fill-opacity:1;fill-rule:nonzero;stroke:none;font-family:Helvetica;-inkscape-font-specification:Helvetica">1</tspan></text>
</g><path
       inkscape:connector-curvature="0"
       id="path102"
       style="fill:none;stroke:#000000;stroke-width:1.5;stroke-linecap:butt;stroke-linejoin:miter;stroke-miterlimit:3.79999995;stroke-opacity:1;stroke-dasharray:none"
       d="m 79,22.4 0,3.15 m 0,205.4 0,-3.15" /><g
       id="g104"><text
         id="text106"
         transform="matrix(1,0,0,-1,77.0543,13.0648)"><tspan
           id="tspan108"
           y="0"
           x="0"
           style="font-size:7px;font-variant:normal;font-weight:normal;writing-mode:lr-tb;fill:#000000;fill-opacity:1;fill-rule:nonzero;stroke:none;font-family:Helvetica;-inkscape-font-specification:Helvetica">0</tspan></text>
</g><path
       inkscape:connector-curvature="0"
       id="path110"
       style="fill:none;stroke:#000000;stroke-width:1.5;stroke-linecap:butt;stroke-linejoin:miter;stroke-miterlimit:3.79999995;stroke-opacity:1;stroke-dasharray:none"
       d="m 123.75,22.4 0,3.15 m 0,205.4 0,-3.15" /><g
       id="g112"><text
         id="text114"
         transform="matrix(1,0,0,-1,121.804,13.0648)"><tspan
           id="tspan116"
           y="0"
           x="0"
           style="font-size:7px;font-variant:normal;font-weight:normal;writing-mode:lr-tb;fill:#000000;fill-opacity:1;fill-rule:nonzero;stroke:none;font-family:Helvetica;-inkscape-font-specification:Helvetica">1</tspan></text>
</g><path
       inkscape:connector-curvature="0"
       id="path118"
       style="fill:none;stroke:#000000;stroke-width:1.5;stroke-linecap:butt;stroke-linejoin:miter;stroke-miterlimit:3.79999995;stroke-opacity:1;stroke-dasharray:none"
       d="m 168.45,22.4 0,3.15 m 0,205.4 0,-3.15" /><g
       id="g120"><text
         id="text122"
         transform="matrix(1,0,0,-1,166.504,13.0648)"><tspan
           id="tspan124"
           y="0"
           x="0"
           style="font-size:7px;font-variant:normal;font-weight:normal;writing-mode:lr-tb;fill:#000000;fill-opacity:1;fill-rule:nonzero;stroke:none;font-family:Helvetica;-inkscape-font-specification:Helvetica">2</tspan></text>
</g><path
       inkscape:connector-curvature="0"
       id="path126"
       style="fill:none;stroke:#000000;stroke-width:1.5;stroke-linecap:butt;stroke-linejoin:miter;stroke-miterlimit:3.79999995;stroke-opacity:1;stroke-dasharray:none"
       d="m 213.2,22.4 0,3.15 m 0,205.4 0,-3.15" /><g
       id="g128"><text
         id="text130"
         transform="matrix(1,0,0,-1,211.254,13.0648)"><tspan
           id="tspan132"
           y="0"
           x="0"
           style="font-size:7px;font-variant:normal;font-weight:normal;writing-mode:lr-tb;fill:#000000;fill-opacity:1;fill-rule:nonzero;stroke:none;font-family:Helvetica;-inkscape-font-specification:Helvetica">3</tspan></text>
</g><path
       inkscape:connector-curvature="0"
       id="path134"
       style="fill:none;stroke:#000000;stroke-width:1.5;stroke-linecap:butt;stroke-linejoin:miter;stroke-miterlimit:3.79999995;stroke-opacity:1;stroke-dasharray:none"
       d="m 257.9,22.4 0,3.15 m 0,205.4 0,-3.15" /><g
       id="g136"><text
         id="text138"
         transform="matrix(1,0,0,-1,255.954,13.0648)"><tspan
           id="tspan140"
           y="0"
           x="0"
           style="font-size:7px;font-variant:normal;font-weight:normal;writing-mode:lr-tb;fill:#000000;fill-opacity:1;fill-rule:nonzero;stroke:none;font-family:Helvetica;-inkscape-font-specification:Helvetica">4</tspan></text>
</g><path
       inkscape:connector-curvature="0"
       id="path142"
       style="fill:none;stroke:#000000;stroke-width:1.5;stroke-linecap:butt;stroke-linejoin:miter;stroke-miterlimit:3.79999995;stroke-opacity:1;stroke-dasharray:none"
       d="m 302.65,22.4 0,3.15 m 0,205.4 0,-3.15" /><g
       id="g144"><text
         id="text146"
         transform="matrix(1,0,0,-1,300.704,13.0648)"><tspan
           id="tspan148"
           y="0"
           x="0"
           style="font-size:7px;font-variant:normal;font-weight:normal;writing-mode:lr-tb;fill:#000000;fill-opacity:1;fill-rule:nonzero;stroke:none;font-family:Helvetica;-inkscape-font-specification:Helvetica">5</tspan></text>
</g><path
       inkscape:connector-curvature="0"
       id="path150"
       style="fill:none;stroke:#000000;stroke-width:1.5;stroke-linecap:butt;stroke-linejoin:miter;stroke-miterlimit:3.79999995;stroke-opacity:1;stroke-dasharray:none"
       d="m 34.3,22.4 313.05,0 0,208.55 -313.05,0 0,-208.55 z" /><g
       id="g152"><text
         id="text154"
         transform="matrix(0,1,1,0,7.93516,99.6105)"><tspan
           id="tspan156"
           sodipodi:role="line"
           y="0"
           x="0 6.223 8.1689997 12.061 14.007 15.953 19.844999 23.737 27.237 31.129 34.629002 36.575001 38.905998 42.798 46.689999 50.582001"
           style="font-size:7px;font-variant:normal;font-weight:normal;writing-mode:lr-tb;fill:#000000;fill-opacity:1;fill-rule:nonzero;stroke:none;font-family:Helvetica;-inkscape-font-specification:Helvetica">% of bases reads</tspan></text>
<text
         id="text158"
         transform="matrix(1,0,0,-1,163.18,2.56484)"><tspan
           id="tspan160"
           sodipodi:role="line"
           y="0"
           x="0 3.892 5.8379998 9.7299995 11.676 13.622 17.514 19.844999 22.176001 26.068001 28.399 31.899 33.845001 35.398998 39.291 41.237 43.568001 47.459999 51.352001"
           style="font-size:7px;font-variant:normal;font-weight:normal;writing-mode:lr-tb;fill:#000000;fill-opacity:1;fill-rule:nonzero;stroke:none;font-family:Helvetica;-inkscape-font-specification:Helvetica"># of errors in read</tspan><tspan
           id="tspan162"
           sodipodi:role="line"
           y="-236.55"
           x="-34.431198 -29.762199 -25.870199 -23.5392 -20.0392 -16.1472 -12.2552 -10.3092 -8.3632002 -4.4712 -2.5251999 -0.57920003 3.3127999 7.2048001 10.7048 14.5968 18.0968 20.042801 23.542801 27.042801 28.9888 30.934799 34.826801 36.7728 40.664799 42.610802 44.556801 48.448799 50.7798 53.110802 57.0028 59.333801 62.833801 64.7798 66.333801 70.2258 72.171799 74.5028 78.394798 82.286797 86.178802"
           style="font-size:7px;font-variant:normal;font-weight:normal;writing-mode:lr-tb;fill:#000000;fill-opacity:1;fill-rule:nonzero;stroke:none;font-family:Helvetica;-inkscape-font-specification:Helvetica">Percent of bases vs. # of errors in reads</tspan></text>
</g><path
       inkscape:connector-curvature="0"
       id="path164"
       style="fill:none;stroke:#ff0000;stroke-width:0.75;stroke-linecap:butt;stroke-linejoin:miter;stroke-miterlimit:3.79999995;stroke-opacity:1;stroke-dasharray:none"
       d="m 34.3,22.4 313.05,0" /><path
       inkscape:connector-curvature="0"
       id="path172"
       style="fill:#ff0000;fill-opacity:1;fill-rule:nonzero;stroke:none"
       d="m 319,222.55 19.95,0 0,3.5 -19.95,0 0,-3.5 z" /><path
       inkscape:connector-curvature="0"
       id="path174"
       style="fill:none;stroke:#000000;stroke-width:0.75;stroke-linecap:butt;stroke-linejoin:miter;stroke-miterlimit:3.79999995;stroke-opacity:1;stroke-dasharray:none"
       d="m 319,222.55 19.95,0 0,3.5 -19.95,0 0,-3.5 z" /><path
       inkscape:connector-curvature="0"
       id="path176"
       style="fill:#ff0000;fill-opacity:1;fill-rule:nonzero;stroke:none"
       d="m 67.05,22.4 3.7,0 0,57.25 -3.7,0 0,-57.25 z" /><path
       inkscape:connector-curvature="0"
       id="path178"
       style="fill:none;stroke:#000000;stroke-width:0.75;stroke-linecap:butt;stroke-linejoin:miter;stroke-miterlimit:3.79999995;stroke-opacity:1;stroke-dasharray:none"
       d="m 67.05,22.4 3.65,0 0,57.2 -3.65,0 0,-57.2 z" /><path
       inkscape:connector-curvature="0"
       id="path180"
       style="fill:#ff0000;fill-opacity:1;fill-rule:nonzero;stroke:none"
       d="m 111.75,22.4 3.7,0 0,25.35 -3.7,0 0,-25.35 z" /><path
       inkscape:connector-curvature="0"
       id="path182"
       style="fill:none;stroke:#000000;stroke-width:0.75;stroke-linecap:butt;stroke-linejoin:miter;stroke-miterlimit:3.79999995;stroke-opacity:1;stroke-dasharray:none"
       d="m 111.75,22.4 3.65,0 0,25.3 -3.65,0 0,-25.3 z" /><path
       inkscape:connector-curvature="0"
       id="path184"
       style="fill:#ff0000;fill-opacity:1;fill-rule:nonzero;stroke:none"
       d="m 156.45,22.4 3.75,0 0,13.6 -3.75,0 0,-13.6 z" /><path
       inkscape:connector-curvature="0"
       id="path186"
       style="fill:none;stroke:#000000;stroke-width:0.75;stroke-linecap:butt;stroke-linejoin:miter;stroke-miterlimit:3.79999995;stroke-opacity:1;stroke-dasharray:none"
       d="m 156.45,22.4 3.7,0 0,13.55 -3.7,0 0,-13.55 z" /><path
       inkscape:connector-curvature="0"
       id="path188"
       style="fill:#ff0000;fill-opacity:1;fill-rule:nonzero;stroke:none"
       d="m 201.2,22.4 3.7,0 0,9.65 -3.7,0 0,-9.65 z" /><path
       inkscape:connector-curvature="0"
       id="path190"
       style="fill:none;stroke:#000000;stroke-width:0.75;stroke-linecap:butt;stroke-linejoin:miter;stroke-miterlimit:3.79999995;stroke-opacity:1;stroke-dasharray:none"
       d="m 201.2,22.4 3.65,0 0,9.6 -3.65,0 0,-9.6 z" /><path
       inkscape:connector-curvature="0"
       id="path192"
       style="fill:#ff0000;fill-opacity:1;fill-rule:nonzero;stroke:none"
       d="m 245.9,22.4 3.7,0 0,6.5 -3.7,0 0,-6.5 z" /><path
       inkscape:connector-curvature="0"
       id="path194"
       style="fill:none;stroke:#000000;stroke-width:0.75;stroke-linecap:butt;stroke-linejoin:miter;stroke-miterlimit:3.79999995;stroke-opacity:1;stroke-dasharray:none"
       d="m 245.9,22.4 3.65,0 0,6.45 -3.65,0 0,-6.45 z" /><path
       inkscape:connector-curvature="0"
       id="path196"
       style="fill:#ff0000;fill-opacity:1;fill-rule:nonzero;stroke:none"
       d="m 290.65,22.4 3.7,0 0,96.55 -3.7,0 0,-96.55 z" /><path
       inkscape:connector-curvature="0"
       id="path198"
       style="fill:none;stroke:#000000;stroke-width:0.75;stroke-linecap:butt;stroke-linejoin:miter;stroke-miterlimit:3.79999995;stroke-opacity:1;stroke-dasharray:none"
       d="m 290.65,22.4 3.65,0 0,96.5 -3.65,0 0,-96.5 z" /><path
       inkscape:connector-curvature="0"
       id="path206"
       style="fill:#00ff00;fill-opacity:1;fill-rule:nonzero;stroke:none"
       d="m 319,215.55 19.95,0 0,3.5 -19.95,0 0,-3.5 z" /><path
       inkscape:connector-curvature="0"
       id="path208"
       style="fill:none;stroke:#000000;stroke-width:0.75;stroke-linecap:butt;stroke-linejoin:miter;stroke-miterlimit:3.79999995;stroke-opacity:1;stroke-dasharray:none"
       d="m 319,215.55 19.95,0 0,3.5 -19.95,0 0,-3.5 z" /><path
       inkscape:connector-curvature="0"
       id="path210"
       style="fill:#00ff00;fill-opacity:1;fill-rule:nonzero;stroke:none"
       d="m 71.1,22.4 3.7,0 0,142.7 -3.7,0 0,-142.7 z" /><path
       inkscape:connector-curvature="0"
       id="path212"
       style="fill:none;stroke:#000000;stroke-width:0.75;stroke-linecap:butt;stroke-linejoin:miter;stroke-miterlimit:3.79999995;stroke-opacity:1;stroke-dasharray:none"
       d="m 71.1,22.4 3.65,0 0,142.65 -3.65,0 0,-142.65 z" /><path
       inkscape:connector-curvature="0"
       id="path214"
       style="fill:#00ff00;fill-opacity:1;fill-rule:nonzero;stroke:none"
       d="m 115.8,22.4 3.7,0 0,12.1 -3.7,0 0,-12.1 z" /><path
       inkscape:connector-curvature="0"
       id="path216"
       style="fill:none;stroke:#000000;stroke-width:0.75;stroke-linecap:butt;stroke-linejoin:miter;stroke-miterlimit:3.79999995;stroke-opacity:1;stroke-dasharray:none"
       d="m 115.8,22.4 3.65,0 0,12.05 -3.65,0 0,-12.05 z" /><path
       inkscape:connector-curvature="0"
       id="path218"
       style="fill:#00ff00;fill-opacity:1;fill-rule:nonzero;stroke:none"
       d="m 160.55,22.4 3.7,0 0,5.4 -3.7,0 0,-5.4 z" /><path
       inkscape:connector-curvature="0"
       id="path220"
       style="fill:none;stroke:#000000;stroke-width:0.75;stroke-linecap:butt;stroke-linejoin:miter;stroke-miterlimit:3.79999995;stroke-opacity:1;stroke-dasharray:none"
       d="m 160.55,22.4 3.65,0 0,5.35 -3.65,0 0,-5.35 z" /><path
       inkscape:connector-curvature="0"
       id="path222"
       style="fill:#00ff00;fill-opacity:1;fill-rule:nonzero;stroke:none"
       d="m 205.25,22.4 3.7,0 0,3.5 -3.7,0 0,-3.5 z" /><path
       inkscape:connector-curvature="0"
       id="path224"
       style="fill:none;stroke:#000000;stroke-width:0.75;stroke-linecap:butt;stroke-linejoin:miter;stroke-miterlimit:3.79999995;stroke-opacity:1;stroke-dasharray:none"
       d="m 205.25,22.4 3.65,0 0,3.45 -3.65,0 0,-3.45 z" /><path
       inkscape:connector-curvature="0"
       id="path226"
       style="fill:#00ff00;fill-opacity:1;fill-rule:nonzero;stroke:none"
       d="m 250,22.4 3.7,0 0,2.1 -3.7,0 0,-2.1 z" /><path
       inkscape:connector-curvature="0"
       id="path228"
       style="fill:none;stroke:#000000;stroke-width:0.75;stroke-linecap:butt;stroke-linejoin:miter;stroke-miterlimit:3.79999995;stroke-opacity:1;stroke-dasharray:none"
       d="m 250,22.4 3.65,0 0,2.05 -3.65,0 0,-2.05 z" /><path
       inkscape:connector-curvature="0"
       id="path230"
       style="fill:#00ff00;fill-opacity:1;fill-rule:nonzero;stroke:none"
       d="m 294.7,22.4 3.7,0 0,43.05 -3.7,0 0,-43.05 z" /><path
       inkscape:connector-curvature="0"
       id="path232"
       style="fill:none;stroke:#000000;stroke-width:0.75;stroke-linecap:butt;stroke-linejoin:miter;stroke-miterlimit:3.79999995;stroke-opacity:1;stroke-dasharray:none"
       d="m 294.7,22.4 3.65,0 0,43 -3.65,0 0,-43 z" /><path
       inkscape:connector-curvature="0"
       id="path240"
       style="fill:#0000ff;fill-opacity:1;fill-rule:nonzero;stroke:none"
       d="m 319,208.55 19.95,0 0,3.5 -19.95,0 0,-3.5 z" /><path
       inkscape:connector-curvature="0"
       id="path242"
       style="fill:none;stroke:#000000;stroke-width:0.75;stroke-linecap:butt;stroke-linejoin:miter;stroke-miterlimit:3.79999995;stroke-opacity:1;stroke-dasharray:none"
       d="m 319,208.55 19.95,0 0,3.5 -19.95,0 0,-3.5 z" /><path
       inkscape:connector-curvature="0"
       id="path244"
       style="fill:#0000ff;fill-opacity:1;fill-rule:nonzero;stroke:none"
       d="m 75.15,22.4 3.7,0 0,148.75 -3.7,0 0,-148.75 z" /><path
       inkscape:connector-curvature="0"
       id="path246"
       style="fill:none;stroke:#000000;stroke-width:0.75;stroke-linecap:butt;stroke-linejoin:miter;stroke-miterlimit:3.79999995;stroke-opacity:1;stroke-dasharray:none"
       d="m 75.15,22.4 3.65,0 0,148.7 -3.65,0 0,-148.7 z" /><path
       inkscape:connector-curvature="0"
       id="path248"
       style="fill:#0000ff;fill-opacity:1;fill-rule:nonzero;stroke:none"
       d="m 119.9,22.4 3.7,0 0,4.25 -3.7,0 0,-4.25 z" /><path
       inkscape:connector-curvature="0"
       id="path250"
       style="fill:none;stroke:#000000;stroke-width:0.75;stroke-linecap:butt;stroke-linejoin:miter;stroke-miterlimit:3.79999995;stroke-opacity:1;stroke-dasharray:none"
       d="m 119.9,22.4 3.65,0 0,4.2 -3.65,0 0,-4.2 z" /><path
       inkscape:connector-curvature="0"
       id="path252"
       style="fill:#0000ff;fill-opacity:1;fill-rule:nonzero;stroke:none"
       d="m 164.6,22.4 3.7,0 0,3.1 -3.7,0 0,-3.1 z" /><path
       inkscape:connector-curvature="0"
       id="path254"
       style="fill:none;stroke:#000000;stroke-width:0.75;stroke-linecap:butt;stroke-linejoin:miter;stroke-miterlimit:3.79999995;stroke-opacity:1;stroke-dasharray:none"
       d="m 164.6,22.4 3.65,0 0,3.05 -3.65,0 0,-3.05 z" /><path
       inkscape:connector-curvature="0"
       id="path256"
       style="fill:#0000ff;fill-opacity:1;fill-rule:nonzero;stroke:none"
       d="m 209.3,22.4 3.75,0 0,2.8 -3.75,0 0,-2.8 z" /><path
       inkscape:connector-curvature="0"
       id="path258"
       style="fill:none;stroke:#000000;stroke-width:0.75;stroke-linecap:butt;stroke-linejoin:miter;stroke-miterlimit:3.79999995;stroke-opacity:1;stroke-dasharray:none"
       d="m 209.3,22.4 3.7,0 0,2.75 -3.7,0 0,-2.75 z" /><path
       inkscape:connector-curvature="0"
       id="path260"
       style="fill:#0000ff;fill-opacity:1;fill-rule:nonzero;stroke:none"
       d="m 254.05,22.4 3.7,0 0,2.3 -3.7,0 0,-2.3 z" /><path
       inkscape:connector-curvature="0"
       id="path262"
       style="fill:none;stroke:#000000;stroke-width:0.75;stroke-linecap:butt;stroke-linejoin:miter;stroke-miterlimit:3.79999995;stroke-opacity:1;stroke-dasharray:none"
       d="m 254.05,22.4 3.65,0 0,2.25 -3.65,0 0,-2.25 z" /><path
       inkscape:connector-curvature="0"
       id="path264"
       style="fill:#0000ff;fill-opacity:1;fill-rule:nonzero;stroke:none"
       d="m 298.75,22.4 3.75,0 0,47.65 -3.75,0 0,-47.65 z" /><path
       inkscape:connector-curvature="0"
       id="path266"
       style="fill:none;stroke:#000000;stroke-width:0.75;stroke-linecap:butt;stroke-linejoin:miter;stroke-miterlimit:3.79999995;stroke-opacity:1;stroke-dasharray:none"
       d="m 298.75,22.4 3.7,0 0,47.6 -3.7,0 0,-47.6 z" /><path
       inkscape:connector-curvature="0"
       id="path274"
       style="fill:#ff00ff;fill-opacity:1;fill-rule:nonzero;stroke:none"
       d="m 319,201.55 19.95,0 0,3.5 -19.95,0 0,-3.5 z" /><path
       inkscape:connector-curvature="0"
       id="path276"
       style="fill:none;stroke:#000000;stroke-width:0.75;stroke-linecap:butt;stroke-linejoin:miter;stroke-miterlimit:3.79999995;stroke-opacity:1;stroke-dasharray:none"
       d="m 319,201.55 19.95,0 0,3.5 -19.95,0 0,-3.5 z" /><path
       inkscape:connector-curvature="0"
       id="path278"
       style="fill:#ff00ff;fill-opacity:1;fill-rule:nonzero;stroke:none"
       d="m 79.2,22.4 3.75,0 0,152.25 -3.75,0 0,-152.25 z" /><path
       inkscape:connector-curvature="0"
       id="path280"
       style="fill:none;stroke:#000000;stroke-width:0.75;stroke-linecap:butt;stroke-linejoin:miter;stroke-miterlimit:3.79999995;stroke-opacity:1;stroke-dasharray:none"
       d="m 79.2,22.4 3.7,0 0,152.2 -3.7,0 0,-152.2 z" /><path
       inkscape:connector-curvature="0"
       id="path282"
       style="fill:#ff00ff;fill-opacity:1;fill-rule:nonzero;stroke:none"
       d="m 123.95,22.4 3.7,0 0,2.55 -3.7,0 0,-2.55 z" /><path
       inkscape:connector-curvature="0"
       id="path284"
       style="fill:none;stroke:#000000;stroke-width:0.75;stroke-linecap:butt;stroke-linejoin:miter;stroke-miterlimit:3.79999995;stroke-opacity:1;stroke-dasharray:none"
       d="m 123.95,22.4 3.65,0 0,2.5 -3.65,0 0,-2.5 z" /><path
       inkscape:connector-curvature="0"
       id="path286"
       style="fill:#ff00ff;fill-opacity:1;fill-rule:nonzero;stroke:none"
       d="m 168.65,22.4 3.75,0 0,1.15 -3.75,0 0,-1.15 z" /><path
       inkscape:connector-curvature="0"
       id="path288"
       style="fill:none;stroke:#000000;stroke-width:0.75;stroke-linecap:butt;stroke-linejoin:miter;stroke-miterlimit:3.79999995;stroke-opacity:1;stroke-dasharray:none"
       d="m 168.65,22.4 3.7,0 0,1.1 -3.7,0 0,-1.1 z" /><path
       inkscape:connector-curvature="0"
       id="path290"
       style="fill:#ff00ff;fill-opacity:1;fill-rule:nonzero;stroke:none"
       d="m 213.4,22.4 3.7,0 0,0.75 -3.7,0 0,-0.75 z" /><path
       inkscape:connector-curvature="0"
       id="path292"
       style="fill:none;stroke:#000000;stroke-width:0.75;stroke-linecap:butt;stroke-linejoin:miter;stroke-miterlimit:3.79999995;stroke-opacity:1;stroke-dasharray:none"
       d="m 213.4,22.4 3.65,0 0,0.7 -3.65,0 0,-0.7 z" /><path
       inkscape:connector-curvature="0"
       id="path294"
       style="fill:#ff00ff;fill-opacity:1;fill-rule:nonzero;stroke:none"
       d="m 258.1,22.4 3.7,0 0,0.45 -3.7,0 0,-0.45 z" /><path
       inkscape:connector-curvature="0"
       id="path296"
       style="fill:none;stroke:#000000;stroke-width:0.75;stroke-linecap:butt;stroke-linejoin:miter;stroke-miterlimit:3.79999995;stroke-opacity:1;stroke-dasharray:none"
       d="m 258.1,22.4 3.65,0 0,0.4 -3.65,0 0,-0.4 z" /><path
       inkscape:connector-curvature="0"
       id="path298"
       style="fill:#ff00ff;fill-opacity:1;fill-rule:nonzero;stroke:none"
       d="m 302.85,22.4 3.7,0 0,51.7 -3.7,0 0,-51.7 z" /><path
       inkscape:connector-curvature="0"
       id="path300"
       style="fill:none;stroke:#000000;stroke-width:0.75;stroke-linecap:butt;stroke-linejoin:miter;stroke-miterlimit:3.79999995;stroke-opacity:1;stroke-dasharray:none"
       d="m 302.85,22.4 3.65,0 0,51.65 -3.65,0 0,-51.65 z" /><path
       inkscape:connector-curvature="0"
       id="path308"
       style="fill:#00ffff;fill-opacity:1;fill-rule:nonzero;stroke:none"
       d="m 319,194.55 19.95,0 0,3.5 -19.95,0 0,-3.5 z" /><path
       inkscape:connector-curvature="0"
       id="path310"
       style="fill:none;stroke:#000000;stroke-width:0.75;stroke-linecap:butt;stroke-linejoin:miter;stroke-miterlimit:3.79999995;stroke-opacity:1;stroke-dasharray:none"
       d="m 319,194.55 19.95,0 0,3.5 -19.95,0 0,-3.5 z" /><path
       inkscape:connector-curvature="0"
       id="path312"
       style="fill:#00ffff;fill-opacity:1;fill-rule:nonzero;stroke:none"
       d="m 83.3,22.4 3.7,0 0,155.7 -3.7,0 0,-155.7 z" /><path
       inkscape:connector-curvature="0"
       id="path314"
       style="fill:none;stroke:#000000;stroke-width:0.75;stroke-linecap:butt;stroke-linejoin:miter;stroke-miterlimit:3.79999995;stroke-opacity:1;stroke-dasharray:none"
       d="m 83.3,22.4 3.65,0 0,155.65 -3.65,0 0,-155.65 z" /><path
       inkscape:connector-curvature="0"
       id="path316"
       style="fill:#00ffff;fill-opacity:1;fill-rule:nonzero;stroke:none"
       d="m 128,22.4 3.7,0 0,15.2 -3.7,0 0,-15.2 z" /><path
       inkscape:connector-curvature="0"
       id="path318"
       style="fill:none;stroke:#000000;stroke-width:0.75;stroke-linecap:butt;stroke-linejoin:miter;stroke-miterlimit:3.79999995;stroke-opacity:1;stroke-dasharray:none"
       d="m 128,22.4 3.65,0 0,15.15 -3.65,0 0,-15.15 z" /><path
       inkscape:connector-curvature="0"
       id="path320"
       style="fill:#00ffff;fill-opacity:1;fill-rule:nonzero;stroke:none"
       d="m 172.75,22.4 3.7,0 0,6.3 -3.7,0 0,-6.3 z" /><path
       inkscape:connector-curvature="0"
       id="path322"
       style="fill:none;stroke:#000000;stroke-width:0.75;stroke-linecap:butt;stroke-linejoin:miter;stroke-miterlimit:3.79999995;stroke-opacity:1;stroke-dasharray:none"
       d="m 172.75,22.4 3.65,0 0,6.25 -3.65,0 0,-6.25 z" /><path
       inkscape:connector-curvature="0"
       id="path324"
       style="fill:#00ffff;fill-opacity:1;fill-rule:nonzero;stroke:none"
       d="m 217.45,22.4 3.7,0 0,4.8 -3.7,0 0,-4.8 z" /><path
       inkscape:connector-curvature="0"
       id="path326"
       style="fill:none;stroke:#000000;stroke-width:0.75;stroke-linecap:butt;stroke-linejoin:miter;stroke-miterlimit:3.79999995;stroke-opacity:1;stroke-dasharray:none"
       d="m 217.45,22.4 3.65,0 0,4.75 -3.65,0 0,-4.75 z" /><path
       inkscape:connector-curvature="0"
       id="path328"
       style="fill:#00ffff;fill-opacity:1;fill-rule:nonzero;stroke:none"
       d="m 262.2,22.4 3.7,0 0,2.5 -3.7,0 0,-2.5 z" /><path
       inkscape:connector-curvature="0"
       id="path330"
       style="fill:none;stroke:#000000;stroke-width:0.75;stroke-linecap:butt;stroke-linejoin:miter;stroke-miterlimit:3.79999995;stroke-opacity:1;stroke-dasharray:none"
       d="m 262.2,22.4 3.65,0 0,2.45 -3.65,0 0,-2.45 z" /><path
       inkscape:connector-curvature="0"
       id="path332"
       style="fill:#00ffff;fill-opacity:1;fill-rule:nonzero;stroke:none"
       d="m 306.9,22.4 3.7,0 0,24.35 -3.7,0 0,-24.35 z" /><path
       inkscape:connector-curvature="0"
       id="path334"
       style="fill:none;stroke:#000000;stroke-width:0.75;stroke-linecap:butt;stroke-linejoin:miter;stroke-miterlimit:3.79999995;stroke-opacity:1;stroke-dasharray:none"
       d="m 306.9,22.4 3.65,0 0,24.3 -3.65,0 0,-24.3 z" /><path
       inkscape:connector-curvature="0"
       id="path342"
       style="fill:#ffff00;fill-opacity:1;fill-rule:nonzero;stroke:none"
       d="m 319,187.55 19.95,0 0,3.5 -19.95,0 0,-3.5 z" /><path
       inkscape:connector-curvature="0"
       id="path344"
       style="fill:none;stroke:#000000;stroke-width:0.75;stroke-linecap:butt;stroke-linejoin:miter;stroke-miterlimit:3.79999995;stroke-opacity:1;stroke-dasharray:none"
       d="m 319,187.55 19.95,0 0,3.5 -19.95,0 0,-3.5 z" /><path
       inkscape:connector-curvature="0"
       id="path346"
       style="fill:#ffff00;fill-opacity:1;fill-rule:nonzero;stroke:none"
       d="m 87.35,22.4 3.7,0 0,206.25 -3.7,0 0,-206.25 z" /><path
       inkscape:connector-curvature="0"
       id="path348"
       style="fill:none;stroke:#000000;stroke-width:0.75;stroke-linecap:butt;stroke-linejoin:miter;stroke-miterlimit:3.79999995;stroke-opacity:1;stroke-dasharray:none"
       d="m 87.35,22.4 3.65,0 0,206.2 -3.65,0 0,-206.2 z" /><path
       inkscape:connector-curvature="0"
       id="path350"
       style="fill:#ffff00;fill-opacity:1;fill-rule:nonzero;stroke:none"
       d="m 132.1,22.4 3.7,0 0,1 -3.7,0 0,-1 z" /><path
       inkscape:connector-curvature="0"
       id="path352"
       style="fill:none;stroke:#000000;stroke-width:0.75;stroke-linecap:butt;stroke-linejoin:miter;stroke-miterlimit:3.79999995;stroke-opacity:1;stroke-dasharray:none"
       d="m 132.1,22.4 3.65,0 0,0.95 -3.65,0 0,-0.95 z" /><path
       inkscape:connector-curvature="0"
       id="path354"
       style="fill:#ffff00;fill-opacity:1;fill-rule:nonzero;stroke:none"
       d="m 176.8,22.4 3.7,0 0,0.35 -3.7,0 0,-0.35 z" /><path
       inkscape:connector-curvature="0"
       id="path356"
       style="fill:none;stroke:#000000;stroke-width:0.75;stroke-linecap:butt;stroke-linejoin:miter;stroke-miterlimit:3.79999995;stroke-opacity:1;stroke-dasharray:none"
       d="m 176.8,22.4 3.65,0 0,0.3 -3.65,0 0,-0.3 z" /><path
       inkscape:connector-curvature="0"
       id="path358"
       style="fill:#ffff00;fill-opacity:1;fill-rule:nonzero;stroke:none"
       d="m 221.5,22.4 3.75,0 0,0.2 -3.75,0 0,-0.2 z" /><path
       inkscape:connector-curvature="0"
       id="path360"
       style="fill:none;stroke:#000000;stroke-width:0.75;stroke-linecap:butt;stroke-linejoin:miter;stroke-miterlimit:3.79999995;stroke-opacity:1;stroke-dasharray:none"
       d="m 221.5,22.4 3.7,0 0,0.15 -3.7,0 0,-0.15 z" /><path
       inkscape:connector-curvature="0"
       id="path362"
       style="fill:#ffff00;fill-opacity:1;fill-rule:nonzero;stroke:none"
       d="m 266.25,22.4 3.7,0 0,0.1 -3.7,0 0,-0.1 z" /><path
       inkscape:connector-curvature="0"
       id="path364"
       style="fill:none;stroke:#000000;stroke-width:0.75;stroke-linecap:butt;stroke-linejoin:miter;stroke-miterlimit:3.79999995;stroke-opacity:1;stroke-dasharray:none"
       d="m 266.25,22.4 3.65,0 0,0.05 -3.65,0 0,-0.05 z" /><path
       inkscape:connector-curvature="0"
       id="path366"
       style="fill:#ffff00;fill-opacity:1;fill-rule:nonzero;stroke:none"
       d="m 310.95,22.4 3.7,0 0,0.9 -3.7,0 0,-0.9 z" /><path
       inkscape:connector-curvature="0"
       id="path368"
       style="fill:none;stroke:#000000;stroke-width:0.75;stroke-linecap:butt;stroke-linejoin:miter;stroke-miterlimit:3.79999995;stroke-opacity:1;stroke-dasharray:none"
       d="m 310.95,22.4 3.65,0 0,0.85 -3.65,0 0,-0.85 z" /><path
       inkscape:connector-curvature="0"
       id="path370"
       style="fill:none;stroke:#000000;stroke-width:1.5;stroke-linecap:butt;stroke-linejoin:miter;stroke-miterlimit:3.79999995;stroke-opacity:1;stroke-dasharray:none"
       d="m 34.3,22.4 313.05,0 0,208.55 -313.05,0 0,-208.55 z" /><g
       transform="translate(1.6343621,-0.09192828)"
       id="g3540"><g
         id="g150"><text
           y="-221.965"
           x="277.01678"
           style="font-family:Liberation Sans;-inkscape-font-specification:Liberation Sans"
           transform="scale(1,-1)"
           id="text152"><tspan
             style="font-size:7px;font-variant:normal;font-weight:normal;writing-mode:lr-tb;fill:#000000;fill-opacity:1;fill-rule:nonzero;stroke:none;font-family:Liberation Sans;-inkscape-font-specification:Liberation Sans"
             x="277.01678"
             y="-221.965"
             sodipodi:role="line"
             id="tspan154">Uncorrected</tspan></text>
</g><g
         transform="translate(1.3991094,0)"
         id="g184"><text
           transform="matrix(1,0,0,-1,297.679,214.965)"
           id="text186"><tspan
             y="0"
             style="font-size:7px;font-variant:normal;font-weight:normal;writing-mode:lr-tb;fill:#000000;fill-opacity:1;fill-rule:nonzero;stroke:none;font-family:Helvetica;-inkscape-font-specification:Helvetica"
             x="0"
             sodipodi:role="line"
             id="tspan188">Echo</tspan></text>
</g><g
         transform="translate(0.8552969,0)"
         id="g218"><text
           transform="matrix(1,0,0,-1,298.071,207.965)"
           id="text220"><tspan
             y="0"
             style="font-size:7px;font-variant:normal;font-weight:normal;writing-mode:lr-tb;fill:#000000;fill-opacity:1;fill-rule:nonzero;stroke:none;font-family:Helvetica;-inkscape-font-specification:Helvetica"
             x="0"
             sodipodi:role="line"
             id="tspan222">Hitec</tspan></text>
</g><g
         transform="translate(0.7809219,0)"
         id="g252"><text
           transform="matrix(1,0,0,-1,297.686,200.965)"
           id="text254"><tspan
             y="0"
             style="font-size:7px;font-variant:normal;font-weight:normal;writing-mode:lr-tb;fill:#000000;fill-opacity:1;fill-rule:nonzero;stroke:none;font-family:Helvetica;-inkscape-font-specification:Helvetica"
             x="0"
             sodipodi:role="line"
             id="tspan256">Coral</tspan></text>
</g><g
         transform="translate(8,0)"
         id="g286"><text
           transform="matrix(1,0,0,-1,286.395,193.965)"
           id="text288"><tspan
             y="0"
             x="0"
             style="font-size:7px;font-variant:normal;font-weight:normal;writing-mode:lr-tb;fill:#000000;fill-opacity:1;fill-rule:nonzero;stroke:none;font-family:Helvetica;-inkscape-font-specification:Helvetica"
             sodipodi:role="line"
             id="tspan290">Quake</tspan></text>
</g><g
         transform="translate(0.792625,0)"
         id="g320"><text
           transform="matrix(1,0,0,-1,289.125,186.965)"
           id="text322"><tspan
             y="0"
             x="0"
             style="font-size:7px;font-variant:normal;font-weight:normal;writing-mode:lr-tb;fill:#000000;fill-opacity:1;fill-rule:nonzero;stroke:none;font-family:Helvetica;-inkscape-font-specification:Helvetica"
             sodipodi:role="line"
             id="tspan324">Quorum</tspan></text>
</g></g></g></svg>