<?xml version="1.0" encoding="UTF-8" standalone="no"?>
<!-- Created with Inkscape (http://www.inkscape.org/) -->

<svg
   xmlns:dc="http://purl.org/dc/elements/1.1/"
   xmlns:cc="http://creativecommons.org/ns#"
   xmlns:rdf="http://www.w3.org/1999/02/22-rdf-syntax-ns#"
   xmlns:svg="http://www.w3.org/2000/svg"
   xmlns="http://www.w3.org/2000/svg"
   xmlns:sodipodi="http://sodipodi.sourceforge.net/DTD/sodipodi-0.dtd"
   xmlns:inkscape="http://www.inkscape.org/namespaces/inkscape"
   id="svg2"
   version="1.1"
   inkscape:version="0.48.1 r9760"
   width="450"
   height="315"
   xml:space="preserve"
   sodipodi:docname="error_vs_reads_abs_histogram.svg"><metadata
     id="metadata8"><rdf:RDF><cc:Work
         rdf:about=""><dc:format>image/svg+xml</dc:format><dc:type
           rdf:resource="http://purl.org/dc/dcmitype/StillImage" /><dc:title></dc:title></cc:Work></rdf:RDF></metadata><defs
     id="defs6">

</defs><sodipodi:namedview
     pagecolor="#ffffff"
     bordercolor="#666666"
     borderopacity="1"
     objecttolerance="10"
     gridtolerance="10"
     guidetolerance="10"
     inkscape:pageopacity="0"
     inkscape:pageshadow="2"
     inkscape:window-width="1280"
     inkscape:window-height="774"
     id="namedview4"
     showgrid="false"
     inkscape:zoom="1.61"
     inkscape:cx="208.89217"
     inkscape:cy="169.99138"
     inkscape:window-x="0"
     inkscape:window-y="225"
     inkscape:window-maximized="1"
     inkscape:current-layer="g10" /><g
     id="g10"
     inkscape:groupmode="layer"
     inkscape:label="error_vs_reads_abs_histogram"
     transform="matrix(1.25,0,0,-1.25,0,315)"><path
       inkscape:connector-curvature="0"
       id="path14"
       style="fill:none;stroke:#000000;stroke-width:1.5;stroke-linecap:butt;stroke-linejoin:miter;stroke-miterlimit:3.79999995;stroke-opacity:1;stroke-dasharray:none"
       d="m 51.1,22.4 3.15,0 m 293.1,0 -3.15,0" /><g
       id="g16"><text
   id="text18"
   transform="matrix(1,0,0,-1,43.0085,20.0648)"><tspan
     id="tspan20"
     y="0"
     x="0"
     style="font-size:7px;font-variant:normal;font-weight:normal;writing-mode:lr-tb;fill:#000000;fill-opacity:1;fill-rule:nonzero;stroke:none;font-family:Helvetica;-inkscape-font-specification:Helvetica">0</tspan></text>

</g><path
       inkscape:connector-curvature="0"
       id="path22"
       style="fill:none;stroke:#000000;stroke-width:1.5;stroke-linecap:butt;stroke-linejoin:miter;stroke-miterlimit:3.79999995;stroke-opacity:1;stroke-dasharray:none"
       d="m 51.1,48.45 3.15,0 m 293.1,0 -3.15,0" /><g
       id="g24"
       transform="translate(11.866816,0)"><text
   id="text26"
   transform="matrix(1,0,0,-1,27.2452,46.1148)"><tspan
     id="tspan28"
     sodipodi:role="line"
     y="0"
     x="0"
     style="font-size:7px;font-variant:normal;font-weight:normal;writing-mode:lr-tb;fill:#000000;fill-opacity:1;fill-rule:nonzero;stroke:none;font-family:Helvetica;-inkscape-font-specification:Helvetica">10</tspan></text>

</g><path
       inkscape:connector-curvature="0"
       id="path30"
       style="fill:none;stroke:#000000;stroke-width:1.5;stroke-linecap:butt;stroke-linejoin:miter;stroke-miterlimit:3.79999995;stroke-opacity:1;stroke-dasharray:none"
       d="m 51.1,74.55 3.15,0 m 293.1,0 -3.15,0" /><g
       id="g32"
       transform="translate(11.866816,0)"><text
   id="text34"
   transform="matrix(1,0,0,-1,27.2452,72.2148)"><tspan
     id="tspan36"
     sodipodi:role="line"
     style="font-size:7px;font-variant:normal;font-weight:normal;writing-mode:lr-tb;fill:#000000;fill-opacity:1;fill-rule:nonzero;stroke:none;font-family:Helvetica;-inkscape-font-specification:Helvetica"
     x="0"
     y="0">20</tspan></text>

</g><path
       inkscape:connector-curvature="0"
       id="path38"
       style="fill:none;stroke:#000000;stroke-width:1.5;stroke-linecap:butt;stroke-linejoin:miter;stroke-miterlimit:3.79999995;stroke-opacity:1;stroke-dasharray:none"
       d="m 51.1,100.6 3.15,0 m 293.1,0 -3.15,0" /><g
       id="g40"
       transform="translate(11.866816,0)"><text
   id="text42"
   transform="matrix(1,0,0,-1,27.2452,98.2648)"><tspan
     id="tspan44"
     sodipodi:role="line"
     style="font-size:7px;font-variant:normal;font-weight:normal;writing-mode:lr-tb;fill:#000000;fill-opacity:1;fill-rule:nonzero;stroke:none;font-family:Helvetica;-inkscape-font-specification:Helvetica"
     x="0"
     y="0">30</tspan></text>

</g><path
       inkscape:connector-curvature="0"
       id="path46"
       style="fill:none;stroke:#000000;stroke-width:1.5;stroke-linecap:butt;stroke-linejoin:miter;stroke-miterlimit:3.79999995;stroke-opacity:1;stroke-dasharray:none"
       d="m 51.1,126.7 3.15,0 m 293.1,0 -3.15,0" /><g
       id="g48"
       transform="translate(11.866816,0)"><text
   id="text50"
   transform="matrix(1,0,0,-1,27.2452,124.365)"><tspan
     id="tspan52"
     sodipodi:role="line"
     style="font-size:7px;font-variant:normal;font-weight:normal;writing-mode:lr-tb;fill:#000000;fill-opacity:1;fill-rule:nonzero;stroke:none;font-family:Helvetica;-inkscape-font-specification:Helvetica"
     x="0"
     y="0">40</tspan></text>

</g><path
       inkscape:connector-curvature="0"
       id="path54"
       style="fill:none;stroke:#000000;stroke-width:1.5;stroke-linecap:butt;stroke-linejoin:miter;stroke-miterlimit:3.79999995;stroke-opacity:1;stroke-dasharray:none"
       d="m 51.1,152.75 3.15,0 m 293.1,0 -3.15,0" /><g
       id="g56"
       transform="translate(11.866816,0)"><text
   id="text58"
   transform="matrix(1,0,0,-1,27.2452,150.415)"><tspan
     id="tspan60"
     sodipodi:role="line"
     style="font-size:7px;font-variant:normal;font-weight:normal;writing-mode:lr-tb;fill:#000000;fill-opacity:1;fill-rule:nonzero;stroke:none;font-family:Helvetica;-inkscape-font-specification:Helvetica"
     x="0"
     y="0">50</tspan></text>

</g><path
       inkscape:connector-curvature="0"
       id="path62"
       style="fill:none;stroke:#000000;stroke-width:1.5;stroke-linecap:butt;stroke-linejoin:miter;stroke-miterlimit:3.79999995;stroke-opacity:1;stroke-dasharray:none"
       d="m 51.1,178.8 3.15,0 m 293.1,0 -3.15,0" /><g
       id="g64"
       transform="translate(17.704316,0)"><text
   id="text66"
   transform="matrix(1,0,0,-1,21.4077,176.465)"><tspan
     id="tspan68"
     sodipodi:role="line"
     style="font-size:7px;font-variant:normal;font-weight:normal;writing-mode:lr-tb;fill:#000000;fill-opacity:1;fill-rule:nonzero;stroke:none;font-family:Helvetica;-inkscape-font-specification:Helvetica"
     x="0"
     y="0">60</tspan></text>

</g><path
       inkscape:connector-curvature="0"
       id="path70"
       style="fill:none;stroke:#000000;stroke-width:1.5;stroke-linecap:butt;stroke-linejoin:miter;stroke-miterlimit:3.79999995;stroke-opacity:1;stroke-dasharray:none"
       d="m 51.1,204.9 3.15,0 m 293.1,0 -3.15,0" /><g
       id="g72"
       transform="translate(17.704316,0)"><text
   id="text74"
   transform="matrix(1,0,0,-1,21.4077,202.565)"><tspan
     id="tspan76"
     sodipodi:role="line"
     style="font-size:7px;font-variant:normal;font-weight:normal;writing-mode:lr-tb;fill:#000000;fill-opacity:1;fill-rule:nonzero;stroke:none;font-family:Helvetica;-inkscape-font-specification:Helvetica"
     x="0"
     y="0">70</tspan></text>

</g><path
       inkscape:connector-curvature="0"
       id="path78"
       style="fill:none;stroke:#000000;stroke-width:1.5;stroke-linecap:butt;stroke-linejoin:miter;stroke-miterlimit:3.79999995;stroke-opacity:1;stroke-dasharray:none"
       d="m 51.1,230.95 3.15,0 m 293.1,0 -3.15,0" /><g
       id="g80"
       transform="translate(17.704316,0)"><text
   id="text82"
   transform="matrix(1,0,0,-1,21.4077,228.615)"><tspan
     id="tspan84"
     sodipodi:role="line"
     style="font-size:7px;font-variant:normal;font-weight:normal;writing-mode:lr-tb;fill:#000000;fill-opacity:1;fill-rule:nonzero;stroke:none;font-family:Helvetica;-inkscape-font-specification:Helvetica"
     x="0"
     y="0">80</tspan></text>

</g><path
       inkscape:connector-curvature="0"
       id="path86"
       style="fill:none;stroke:#000000;stroke-width:1.5;stroke-linecap:butt;stroke-linejoin:miter;stroke-miterlimit:3.79999995;stroke-opacity:1;stroke-dasharray:none"
       d="m 93.4,22.4 0,3.15 m 0,205.4 0,-3.15" /><g
       id="g88"><text
   id="text90"
   transform="matrix(1,0,0,-1,91.4543,13.0648)"><tspan
     id="tspan92"
     y="0"
     x="0"
     style="font-size:7px;font-variant:normal;font-weight:normal;writing-mode:lr-tb;fill:#000000;fill-opacity:1;fill-rule:nonzero;stroke:none;font-family:Helvetica;-inkscape-font-specification:Helvetica">0</tspan></text>

</g><path
       inkscape:connector-curvature="0"
       id="path94"
       style="fill:none;stroke:#000000;stroke-width:1.5;stroke-linecap:butt;stroke-linejoin:miter;stroke-miterlimit:3.79999995;stroke-opacity:1;stroke-dasharray:none"
       d="m 135.75,22.4 0,3.15 m 0,205.4 0,-3.15" /><g
       id="g96"><text
   id="text98"
   transform="matrix(1,0,0,-1,133.804,13.0648)"><tspan
     id="tspan100"
     y="0"
     x="0"
     style="font-size:7px;font-variant:normal;font-weight:normal;writing-mode:lr-tb;fill:#000000;fill-opacity:1;fill-rule:nonzero;stroke:none;font-family:Helvetica;-inkscape-font-specification:Helvetica">1</tspan></text>

</g><path
       inkscape:connector-curvature="0"
       id="path102"
       style="fill:none;stroke:#000000;stroke-width:1.5;stroke-linecap:butt;stroke-linejoin:miter;stroke-miterlimit:3.79999995;stroke-opacity:1;stroke-dasharray:none"
       d="m 178.05,22.4 0,3.15 m 0,205.4 0,-3.15" /><g
       id="g104"><text
   id="text106"
   transform="matrix(1,0,0,-1,176.104,13.0648)"><tspan
     id="tspan108"
     y="0"
     x="0"
     style="font-size:7px;font-variant:normal;font-weight:normal;writing-mode:lr-tb;fill:#000000;fill-opacity:1;fill-rule:nonzero;stroke:none;font-family:Helvetica;-inkscape-font-specification:Helvetica">2</tspan></text>

</g><path
       inkscape:connector-curvature="0"
       id="path110"
       style="fill:none;stroke:#000000;stroke-width:1.5;stroke-linecap:butt;stroke-linejoin:miter;stroke-miterlimit:3.79999995;stroke-opacity:1;stroke-dasharray:none"
       d="m 220.4,22.4 0,3.15 m 0,205.4 0,-3.15" /><g
       id="g112"><text
   id="text114"
   transform="matrix(1,0,0,-1,218.454,13.0648)"><tspan
     id="tspan116"
     y="0"
     x="0"
     style="font-size:7px;font-variant:normal;font-weight:normal;writing-mode:lr-tb;fill:#000000;fill-opacity:1;fill-rule:nonzero;stroke:none;font-family:Helvetica;-inkscape-font-specification:Helvetica">3</tspan></text>

</g><path
       inkscape:connector-curvature="0"
       id="path118"
       style="fill:none;stroke:#000000;stroke-width:1.5;stroke-linecap:butt;stroke-linejoin:miter;stroke-miterlimit:3.79999995;stroke-opacity:1;stroke-dasharray:none"
       d="m 262.7,22.4 0,3.15 m 0,205.4 0,-3.15" /><g
       id="g120"><text
   id="text122"
   transform="matrix(1,0,0,-1,260.754,13.0648)"><tspan
     id="tspan124"
     y="0"
     x="0"
     style="font-size:7px;font-variant:normal;font-weight:normal;writing-mode:lr-tb;fill:#000000;fill-opacity:1;fill-rule:nonzero;stroke:none;font-family:Helvetica;-inkscape-font-specification:Helvetica">4</tspan></text>

</g><path
       inkscape:connector-curvature="0"
       id="path126"
       style="fill:none;stroke:#000000;stroke-width:1.5;stroke-linecap:butt;stroke-linejoin:miter;stroke-miterlimit:3.79999995;stroke-opacity:1;stroke-dasharray:none"
       d="m 305.05,22.4 0,3.15 m 0,205.4 0,-3.15" /><g
       id="g128"
       transform="translate(-1.913543,0)"><text
   id="text130"
   transform="matrix(1,0,0,-1,303.104,13.0648)"
   style="font-family:Liberation Sans;-inkscape-font-specification:Liberation Sans"><tspan
     sodipodi:role="line"
     id="tspan3169"
     style="font-size:7px"
     x="0"
     y="0">≥5</tspan></text>

</g><path
       inkscape:connector-curvature="0"
       id="path134"
       style="fill:none;stroke:#000000;stroke-width:1.5;stroke-linecap:butt;stroke-linejoin:miter;stroke-miterlimit:3.79999995;stroke-opacity:1;stroke-dasharray:none"
       d="m 51.1,22.4 296.25,0 0,208.55 -296.25,0 0,-208.55 z" /><text
       transform="matrix(0,1,1,0,0,0)"
       id="text138"
       x="100.4465"
       y="7.9351602"><tspan
         style="font-size:7px;font-variant:normal;font-weight:normal;writing-mode:lr-tb;fill:#000000;fill-opacity:1;fill-rule:nonzero;stroke:none;font-family:Helvetica;-inkscape-font-specification:Helvetica"
         x="100.4465"
         y="7.9351602"
         sodipodi:role="line"
         id="tspan140">% of initial bases</tspan></text>
<text
       transform="scale(1,-1)"
       id="text142"
       x="171.58"
       y="-2.5648401"><tspan
         style="font-size:7px;font-variant:normal;font-weight:normal;writing-mode:lr-tb;fill:#000000;fill-opacity:1;fill-rule:nonzero;stroke:none;font-family:Helvetica;-inkscape-font-specification:Helvetica"
         x="171.58 175.472 177.418 181.31 183.256 185.202 189.09399 191.425 193.756 197.64799 199.979 203.479 205.425 206.979 210.871 212.817 215.14799 219.03999 222.93201"
         y="-2.5648401"
         sodipodi:role="line"
         id="tspan144"># of errors in read</tspan><tspan
         style="font-size:7px;font-variant:normal;font-weight:normal;writing-mode:lr-tb;fill:#000000;fill-opacity:1;fill-rule:nonzero;stroke:none;font-family:Helvetica;-inkscape-font-specification:Helvetica"
         x="171.58"
         sodipodi:role="line"
         id="tspan146"
         y="-nan" /></text>
<path
       inkscape:connector-curvature="0"
       id="path148"
       style="fill:none;stroke:#ff0000;stroke-width:0.75;stroke-linecap:butt;stroke-linejoin:miter;stroke-miterlimit:3.79999995;stroke-opacity:1;stroke-dasharray:none"
       d="m 51.1,22.4 296.25,0" /><path
       inkscape:connector-curvature="0"
       id="path156"
       style="fill:#ff0000;fill-opacity:1;fill-rule:nonzero;stroke:none"
       d="m 319,222.55 19.95,0 0,3.5 -19.95,0 0,-3.5 z" /><path
       inkscape:connector-curvature="0"
       id="path158"
       style="fill:none;stroke:#000000;stroke-width:0.75;stroke-linecap:butt;stroke-linejoin:miter;stroke-miterlimit:3.79999995;stroke-opacity:1;stroke-dasharray:none"
       d="m 319,222.55 19.95,0 0,3.5 -19.95,0 0,-3.5 z" /><path
       inkscape:connector-curvature="0"
       id="path160"
       style="fill:#ff0000;fill-opacity:1;fill-rule:nonzero;stroke:none"
       d="m 82.05,22.4 3.55,0 0,55.2 -3.55,0 0,-55.2 z" /><path
       inkscape:connector-curvature="0"
       id="path162"
       style="fill:none;stroke:#000000;stroke-width:0.75;stroke-linecap:butt;stroke-linejoin:miter;stroke-miterlimit:3.79999995;stroke-opacity:1;stroke-dasharray:none"
       d="m 82.05,22.4 3.5,0 0,55.15 -3.5,0 0,-55.15 z" /><path
       inkscape:connector-curvature="0"
       id="path164"
       style="fill:#ff0000;fill-opacity:1;fill-rule:nonzero;stroke:none"
       d="m 124.4,22.4 3.5,0 0,24.45 -3.5,0 0,-24.45 z" /><path
       inkscape:connector-curvature="0"
       id="path166"
       style="fill:none;stroke:#000000;stroke-width:0.75;stroke-linecap:butt;stroke-linejoin:miter;stroke-miterlimit:3.79999995;stroke-opacity:1;stroke-dasharray:none"
       d="m 124.4,22.4 3.45,0 0,24.4 -3.45,0 0,-24.4 z" /><path
       inkscape:connector-curvature="0"
       id="path168"
       style="fill:#ff0000;fill-opacity:1;fill-rule:nonzero;stroke:none"
       d="m 166.7,22.4 3.55,0 0,13.1 -3.55,0 0,-13.1 z" /><path
       inkscape:connector-curvature="0"
       id="path170"
       style="fill:none;stroke:#000000;stroke-width:0.75;stroke-linecap:butt;stroke-linejoin:miter;stroke-miterlimit:3.79999995;stroke-opacity:1;stroke-dasharray:none"
       d="m 166.7,22.4 3.5,0 0,13.05 -3.5,0 0,-13.05 z" /><path
       inkscape:connector-curvature="0"
       id="path172"
       style="fill:#ff0000;fill-opacity:1;fill-rule:nonzero;stroke:none"
       d="m 209.05,22.4 3.5,0 0,9.3 -3.5,0 0,-9.3 z" /><path
       inkscape:connector-curvature="0"
       id="path174"
       style="fill:none;stroke:#000000;stroke-width:0.75;stroke-linecap:butt;stroke-linejoin:miter;stroke-miterlimit:3.79999995;stroke-opacity:1;stroke-dasharray:none"
       d="m 209.05,22.4 3.45,0 0,9.25 -3.45,0 0,-9.25 z" /><path
       inkscape:connector-curvature="0"
       id="path176"
       style="fill:#ff0000;fill-opacity:1;fill-rule:nonzero;stroke:none"
       d="m 251.35,22.4 3.5,0 0,6.3 -3.5,0 0,-6.3 z" /><path
       inkscape:connector-curvature="0"
       id="path178"
       style="fill:none;stroke:#000000;stroke-width:0.75;stroke-linecap:butt;stroke-linejoin:miter;stroke-miterlimit:3.79999995;stroke-opacity:1;stroke-dasharray:none"
       d="m 251.35,22.4 3.45,0 0,6.25 -3.45,0 0,-6.25 z" /><path
       inkscape:connector-curvature="0"
       id="path180"
       style="fill:#ff0000;fill-opacity:1;fill-rule:nonzero;stroke:none"
       d="m 293.7,22.4 3.5,0 0,93.1 -3.5,0 0,-93.1 z" /><path
       inkscape:connector-curvature="0"
       id="path182"
       style="fill:none;stroke:#000000;stroke-width:0.75;stroke-linecap:butt;stroke-linejoin:miter;stroke-miterlimit:3.79999995;stroke-opacity:1;stroke-dasharray:none"
       d="m 293.7,22.4 3.45,0 0,93.05 -3.45,0 0,-93.05 z" /><path
       inkscape:connector-curvature="0"
       id="path190"
       style="fill:#00ff00;fill-opacity:1;fill-rule:nonzero;stroke:none"
       d="m 319,215.55 19.95,0 0,3.5 -19.95,0 0,-3.5 z" /><path
       inkscape:connector-curvature="0"
       id="path192"
       style="fill:none;stroke:#000000;stroke-width:0.75;stroke-linecap:butt;stroke-linejoin:miter;stroke-miterlimit:3.79999995;stroke-opacity:1;stroke-dasharray:none"
       d="m 319,215.55 19.95,0 0,3.5 -19.95,0 0,-3.5 z" /><path
       inkscape:connector-curvature="0"
       id="path194"
       style="fill:#00ff00;fill-opacity:1;fill-rule:nonzero;stroke:none"
       d="m 85.9,22.4 3.55,0 0,148.6 -3.55,0 0,-148.6 z" /><path
       inkscape:connector-curvature="0"
       id="path196"
       style="fill:none;stroke:#000000;stroke-width:0.75;stroke-linecap:butt;stroke-linejoin:miter;stroke-miterlimit:3.79999995;stroke-opacity:1;stroke-dasharray:none"
       d="m 85.9,22.4 3.5,0 0,148.55 -3.5,0 0,-148.55 z" /><path
       inkscape:connector-curvature="0"
       id="path198"
       style="fill:#00ff00;fill-opacity:1;fill-rule:nonzero;stroke:none"
       d="m 128.25,22.4 3.5,0 0,12.6 -3.5,0 0,-12.6 z" /><path
       inkscape:connector-curvature="0"
       id="path200"
       style="fill:none;stroke:#000000;stroke-width:0.75;stroke-linecap:butt;stroke-linejoin:miter;stroke-miterlimit:3.79999995;stroke-opacity:1;stroke-dasharray:none"
       d="m 128.25,22.4 3.45,0 0,12.55 -3.45,0 0,-12.55 z" /><path
       inkscape:connector-curvature="0"
       id="path202"
       style="fill:#00ff00;fill-opacity:1;fill-rule:nonzero;stroke:none"
       d="m 170.55,22.4 3.5,0 0,5.6 -3.5,0 0,-5.6 z" /><path
       inkscape:connector-curvature="0"
       id="path204"
       style="fill:none;stroke:#000000;stroke-width:0.75;stroke-linecap:butt;stroke-linejoin:miter;stroke-miterlimit:3.79999995;stroke-opacity:1;stroke-dasharray:none"
       d="m 170.55,22.4 3.45,0 0,5.55 -3.45,0 0,-5.55 z" /><path
       inkscape:connector-curvature="0"
       id="path206"
       style="fill:#00ff00;fill-opacity:1;fill-rule:nonzero;stroke:none"
       d="m 212.9,22.4 3.5,0 0,3.65 -3.5,0 0,-3.65 z" /><path
       inkscape:connector-curvature="0"
       id="path208"
       style="fill:none;stroke:#000000;stroke-width:0.75;stroke-linecap:butt;stroke-linejoin:miter;stroke-miterlimit:3.79999995;stroke-opacity:1;stroke-dasharray:none"
       d="m 212.9,22.4 3.45,0 0,3.6 -3.45,0 0,-3.6 z" /><path
       inkscape:connector-curvature="0"
       id="path210"
       style="fill:#00ff00;fill-opacity:1;fill-rule:nonzero;stroke:none"
       d="m 255.2,22.4 3.5,0 0,2.2 -3.5,0 0,-2.2 z" /><path
       inkscape:connector-curvature="0"
       id="path212"
       style="fill:none;stroke:#000000;stroke-width:0.75;stroke-linecap:butt;stroke-linejoin:miter;stroke-miterlimit:3.79999995;stroke-opacity:1;stroke-dasharray:none"
       d="m 255.2,22.4 3.45,0 0,2.15 -3.45,0 0,-2.15 z" /><path
       inkscape:connector-curvature="0"
       id="path214"
       style="fill:#00ff00;fill-opacity:1;fill-rule:nonzero;stroke:none"
       d="m 297.55,22.4 3.5,0 0,44.85 -3.5,0 0,-44.85 z" /><path
       inkscape:connector-curvature="0"
       id="path216"
       style="fill:none;stroke:#000000;stroke-width:0.75;stroke-linecap:butt;stroke-linejoin:miter;stroke-miterlimit:3.79999995;stroke-opacity:1;stroke-dasharray:none"
       d="m 297.55,22.4 3.45,0 0,44.8 -3.45,0 0,-44.8 z" /><path
       inkscape:connector-curvature="0"
       id="path224"
       style="fill:#0000ff;fill-opacity:1;fill-rule:nonzero;stroke:none"
       d="m 319,208.55 19.95,0 0,3.5 -19.95,0 0,-3.5 z" /><path
       inkscape:connector-curvature="0"
       id="path226"
       style="fill:none;stroke:#000000;stroke-width:0.75;stroke-linecap:butt;stroke-linejoin:miter;stroke-miterlimit:3.79999995;stroke-opacity:1;stroke-dasharray:none"
       d="m 319,208.55 19.95,0 0,3.5 -19.95,0 0,-3.5 z" /><path
       inkscape:connector-curvature="0"
       id="path228"
       style="fill:#0000ff;fill-opacity:1;fill-rule:nonzero;stroke:none"
       d="m 89.75,22.4 3.55,0 0,160.4 -3.55,0 0,-160.4 z" /><path
       inkscape:connector-curvature="0"
       id="path230"
       style="fill:none;stroke:#000000;stroke-width:0.75;stroke-linecap:butt;stroke-linejoin:miter;stroke-miterlimit:3.79999995;stroke-opacity:1;stroke-dasharray:none"
       d="m 89.75,22.4 3.5,0 0,160.35 -3.5,0 0,-160.35 z" /><path
       inkscape:connector-curvature="0"
       id="path232"
       style="fill:#0000ff;fill-opacity:1;fill-rule:nonzero;stroke:none"
       d="m 132.1,22.4 3.5,0 0,4.6 -3.5,0 0,-4.6 z" /><path
       inkscape:connector-curvature="0"
       id="path234"
       style="fill:none;stroke:#000000;stroke-width:0.75;stroke-linecap:butt;stroke-linejoin:miter;stroke-miterlimit:3.79999995;stroke-opacity:1;stroke-dasharray:none"
       d="m 132.1,22.4 3.45,0 0,4.55 -3.45,0 0,-4.55 z" /><path
       inkscape:connector-curvature="0"
       id="path236"
       style="fill:#0000ff;fill-opacity:1;fill-rule:nonzero;stroke:none"
       d="m 174.4,22.4 3.5,0 0,3.35 -3.5,0 0,-3.35 z" /><path
       inkscape:connector-curvature="0"
       id="path238"
       style="fill:none;stroke:#000000;stroke-width:0.75;stroke-linecap:butt;stroke-linejoin:miter;stroke-miterlimit:3.79999995;stroke-opacity:1;stroke-dasharray:none"
       d="m 174.4,22.4 3.45,0 0,3.3 -3.45,0 0,-3.3 z" /><path
       inkscape:connector-curvature="0"
       id="path240"
       style="fill:#0000ff;fill-opacity:1;fill-rule:nonzero;stroke:none"
       d="m 216.75,22.4 3.5,0 0,3 -3.5,0 0,-3 z" /><path
       inkscape:connector-curvature="0"
       id="path242"
       style="fill:none;stroke:#000000;stroke-width:0.75;stroke-linecap:butt;stroke-linejoin:miter;stroke-miterlimit:3.79999995;stroke-opacity:1;stroke-dasharray:none"
       d="m 216.75,22.4 3.45,0 0,2.95 -3.45,0 0,-2.95 z" /><path
       inkscape:connector-curvature="0"
       id="path244"
       style="fill:#0000ff;fill-opacity:1;fill-rule:nonzero;stroke:none"
       d="m 259.05,22.4 3.5,0 0,2.45 -3.5,0 0,-2.45 z" /><path
       inkscape:connector-curvature="0"
       id="path246"
       style="fill:none;stroke:#000000;stroke-width:0.75;stroke-linecap:butt;stroke-linejoin:miter;stroke-miterlimit:3.79999995;stroke-opacity:1;stroke-dasharray:none"
       d="m 259.05,22.4 3.45,0 0,2.4 -3.45,0 0,-2.4 z" /><path
       inkscape:connector-curvature="0"
       id="path248"
       style="fill:#0000ff;fill-opacity:1;fill-rule:nonzero;stroke:none"
       d="m 301.35,22.4 3.55,0 0,51.4 -3.55,0 0,-51.4 z" /><path
       inkscape:connector-curvature="0"
       id="path250"
       style="fill:none;stroke:#000000;stroke-width:0.75;stroke-linecap:butt;stroke-linejoin:miter;stroke-miterlimit:3.79999995;stroke-opacity:1;stroke-dasharray:none"
       d="m 301.35,22.4 3.5,0 0,51.35 -3.5,0 0,-51.35 z" /><path
       inkscape:connector-curvature="0"
       id="path258"
       style="fill:#ff00ff;fill-opacity:1;fill-rule:nonzero;stroke:none"
       d="m 319,201.55 19.95,0 0,3.5 -19.95,0 0,-3.5 z" /><path
       inkscape:connector-curvature="0"
       id="path260"
       style="fill:none;stroke:#000000;stroke-width:0.75;stroke-linecap:butt;stroke-linejoin:miter;stroke-miterlimit:3.79999995;stroke-opacity:1;stroke-dasharray:none"
       d="m 319,201.55 19.95,0 0,3.5 -19.95,0 0,-3.5 z" /><path
       inkscape:connector-curvature="0"
       id="path262"
       style="fill:#ff00ff;fill-opacity:1;fill-rule:nonzero;stroke:none"
       d="m 93.6,22.4 3.55,0 0,153.55 -3.55,0 0,-153.55 z" /><path
       inkscape:connector-curvature="0"
       id="path264"
       style="fill:none;stroke:#000000;stroke-width:0.75;stroke-linecap:butt;stroke-linejoin:miter;stroke-miterlimit:3.79999995;stroke-opacity:1;stroke-dasharray:none"
       d="m 93.6,22.4 3.5,0 0,153.5 -3.5,0 0,-153.5 z" /><path
       inkscape:connector-curvature="0"
       id="path266"
       style="fill:#ff00ff;fill-opacity:1;fill-rule:nonzero;stroke:none"
       d="m 135.95,22.4 3.5,0 0,2.6 -3.5,0 0,-2.6 z" /><path
       inkscape:connector-curvature="0"
       id="path268"
       style="fill:none;stroke:#000000;stroke-width:0.75;stroke-linecap:butt;stroke-linejoin:miter;stroke-miterlimit:3.79999995;stroke-opacity:1;stroke-dasharray:none"
       d="m 135.95,22.4 3.45,0 0,2.55 -3.45,0 0,-2.55 z" /><path
       inkscape:connector-curvature="0"
       id="path270"
       style="fill:#ff00ff;fill-opacity:1;fill-rule:nonzero;stroke:none"
       d="m 178.25,22.4 3.5,0 0,1.15 -3.5,0 0,-1.15 z" /><path
       inkscape:connector-curvature="0"
       id="path272"
       style="fill:none;stroke:#000000;stroke-width:0.75;stroke-linecap:butt;stroke-linejoin:miter;stroke-miterlimit:3.79999995;stroke-opacity:1;stroke-dasharray:none"
       d="m 178.25,22.4 3.45,0 0,1.1 -3.45,0 0,-1.1 z" /><path
       inkscape:connector-curvature="0"
       id="path274"
       style="fill:#ff00ff;fill-opacity:1;fill-rule:nonzero;stroke:none"
       d="m 220.6,22.4 3.5,0 0,0.75 -3.5,0 0,-0.75 z" /><path
       inkscape:connector-curvature="0"
       id="path276"
       style="fill:none;stroke:#000000;stroke-width:0.75;stroke-linecap:butt;stroke-linejoin:miter;stroke-miterlimit:3.79999995;stroke-opacity:1;stroke-dasharray:none"
       d="m 220.6,22.4 3.45,0 0,0.7 -3.45,0 0,-0.7 z" /><path
       inkscape:connector-curvature="0"
       id="path278"
       style="fill:#ff00ff;fill-opacity:1;fill-rule:nonzero;stroke:none"
       d="m 262.9,22.4 3.5,0 0,0.45 -3.5,0 0,-0.45 z" /><path
       inkscape:connector-curvature="0"
       id="path280"
       style="fill:none;stroke:#000000;stroke-width:0.75;stroke-linecap:butt;stroke-linejoin:miter;stroke-miterlimit:3.79999995;stroke-opacity:1;stroke-dasharray:none"
       d="m 262.9,22.4 3.45,0 0,0.4 -3.45,0 0,-0.4 z" /><path
       inkscape:connector-curvature="0"
       id="path282"
       style="fill:#ff00ff;fill-opacity:1;fill-rule:nonzero;stroke:none"
       d="m 305.2,22.4 3.55,0 0,52.15 -3.55,0 0,-52.15 z" /><path
       inkscape:connector-curvature="0"
       id="path284"
       style="fill:none;stroke:#000000;stroke-width:0.75;stroke-linecap:butt;stroke-linejoin:miter;stroke-miterlimit:3.79999995;stroke-opacity:1;stroke-dasharray:none"
       d="m 305.2,22.4 3.5,0 0,52.1 -3.5,0 0,-52.1 z" /><path
       inkscape:connector-curvature="0"
       id="path292"
       style="fill:#00ffff;fill-opacity:1;fill-rule:nonzero;stroke:none"
       d="m 319,194.55 19.95,0 0,3.5 -19.95,0 0,-3.5 z" /><path
       inkscape:connector-curvature="0"
       id="path294"
       style="fill:none;stroke:#000000;stroke-width:0.75;stroke-linecap:butt;stroke-linejoin:miter;stroke-miterlimit:3.79999995;stroke-opacity:1;stroke-dasharray:none"
       d="m 319,194.55 19.95,0 0,3.5 -19.95,0 0,-3.5 z" /><path
       inkscape:connector-curvature="0"
       id="path296"
       style="fill:#00ffff;fill-opacity:1;fill-rule:nonzero;stroke:none"
       d="m 97.45,22.4 3.5,0 0,127.85 -3.5,0 0,-127.85 z" /><path
       inkscape:connector-curvature="0"
       id="path298"
       style="fill:none;stroke:#000000;stroke-width:0.75;stroke-linecap:butt;stroke-linejoin:miter;stroke-miterlimit:3.79999995;stroke-opacity:1;stroke-dasharray:none"
       d="m 97.45,22.4 3.45,0 0,127.8 -3.45,0 0,-127.8 z" /><path
       inkscape:connector-curvature="0"
       id="path300"
       style="fill:#00ffff;fill-opacity:1;fill-rule:nonzero;stroke:none"
       d="m 139.8,22.4 3.5,0 0,12.5 -3.5,0 0,-12.5 z" /><path
       inkscape:connector-curvature="0"
       id="path302"
       style="fill:none;stroke:#000000;stroke-width:0.75;stroke-linecap:butt;stroke-linejoin:miter;stroke-miterlimit:3.79999995;stroke-opacity:1;stroke-dasharray:none"
       d="m 139.8,22.4 3.45,0 0,12.45 -3.45,0 0,-12.45 z" /><path
       inkscape:connector-curvature="0"
       id="path304"
       style="fill:#00ffff;fill-opacity:1;fill-rule:nonzero;stroke:none"
       d="m 182.1,22.4 3.5,0 0,5.15 -3.5,0 0,-5.15 z" /><path
       inkscape:connector-curvature="0"
       id="path306"
       style="fill:none;stroke:#000000;stroke-width:0.75;stroke-linecap:butt;stroke-linejoin:miter;stroke-miterlimit:3.79999995;stroke-opacity:1;stroke-dasharray:none"
       d="m 182.1,22.4 3.45,0 0,5.1 -3.45,0 0,-5.1 z" /><path
       inkscape:connector-curvature="0"
       id="path308"
       style="fill:#00ffff;fill-opacity:1;fill-rule:nonzero;stroke:none"
       d="m 224.45,22.4 3.5,0 0,3.95 -3.5,0 0,-3.95 z" /><path
       inkscape:connector-curvature="0"
       id="path310"
       style="fill:none;stroke:#000000;stroke-width:0.75;stroke-linecap:butt;stroke-linejoin:miter;stroke-miterlimit:3.79999995;stroke-opacity:1;stroke-dasharray:none"
       d="m 224.45,22.4 3.45,0 0,3.9 -3.45,0 0,-3.9 z" /><path
       inkscape:connector-curvature="0"
       id="path312"
       style="fill:#00ffff;fill-opacity:1;fill-rule:nonzero;stroke:none"
       d="m 266.75,22.4 3.5,0 0,2.05 -3.5,0 0,-2.05 z" /><path
       inkscape:connector-curvature="0"
       id="path314"
       style="fill:none;stroke:#000000;stroke-width:0.75;stroke-linecap:butt;stroke-linejoin:miter;stroke-miterlimit:3.79999995;stroke-opacity:1;stroke-dasharray:none"
       d="m 266.75,22.4 3.45,0 0,2 -3.45,0 0,-2 z" /><path
       inkscape:connector-curvature="0"
       id="path316"
       style="fill:#00ffff;fill-opacity:1;fill-rule:nonzero;stroke:none"
       d="m 309.05,22.4 3.55,0 0,20 -3.55,0 0,-20 z" /><path
       inkscape:connector-curvature="0"
       id="path318"
       style="fill:none;stroke:#000000;stroke-width:0.75;stroke-linecap:butt;stroke-linejoin:miter;stroke-miterlimit:3.79999995;stroke-opacity:1;stroke-dasharray:none"
       d="m 309.05,22.4 3.5,0 0,19.95 -3.5,0 0,-19.95 z" /><g
       id="g3233"><g
         id="g150"><text
   y="-221.965"
   x="277.01678"
   style="font-family:Liberation Sans;-inkscape-font-specification:Liberation Sans"
   transform="scale(1,-1)"
   id="text152"><tspan
     style="font-size:7px;font-variant:normal;font-weight:normal;writing-mode:lr-tb;fill:#000000;fill-opacity:1;fill-rule:nonzero;stroke:none;font-family:Liberation Sans;-inkscape-font-specification:Liberation Sans"
     x="277.01678"
     y="-221.965"
     sodipodi:role="line"
     id="tspan154">Uncorrected</tspan></text>

</g><g
         transform="translate(-2.9455708,0)"
         id="g184"><text
   transform="matrix(1,0,0,-1,297.679,214.965)"
   id="text186"><tspan
     y="0"
     style="font-size:7px;font-variant:normal;font-weight:normal;writing-mode:lr-tb;fill:#000000;fill-opacity:1;fill-rule:nonzero;stroke:none;font-family:Helvetica;-inkscape-font-specification:Helvetica"
     x="0"
     sodipodi:role="line"
     id="tspan188">ECHO</tspan></text>

</g><g
         transform="translate(-3.6618677,0)"
         id="g218"><text
   transform="matrix(1,0,0,-1,298.071,207.965)"
   id="text220"><tspan
     y="0"
     style="font-size:7px;font-variant:normal;font-weight:normal;writing-mode:lr-tb;fill:#000000;fill-opacity:1;fill-rule:nonzero;stroke:none;font-family:Helvetica;-inkscape-font-specification:Helvetica"
     x="0"
     sodipodi:role="line"
     id="tspan222">HiTEC</tspan></text>

</g><g
         transform="translate(0.78094482,0)"
         id="g252"><text
   transform="matrix(1,0,0,-1,297.686,200.965)"
   id="text254"><tspan
     y="0"
     style="font-size:7px;font-variant:normal;font-weight:normal;writing-mode:lr-tb;fill:#000000;fill-opacity:1;fill-rule:nonzero;stroke:none;font-family:Helvetica;-inkscape-font-specification:Helvetica"
     x="0"
     sodipodi:role="line"
     id="tspan256">Coral</tspan></text>

</g><g
         transform="translate(8.0000229,0)"
         id="g286"><text
   transform="matrix(1,0,0,-1,286.395,193.965)"
   id="text288"><tspan
     y="0"
     x="0"
     style="font-size:7px;font-variant:normal;font-weight:normal;writing-mode:lr-tb;fill:#000000;fill-opacity:1;fill-rule:nonzero;stroke:none;font-family:Helvetica;-inkscape-font-specification:Helvetica"
     sodipodi:role="line"
     id="tspan290">Quake</tspan></text>

</g><g
         transform="translate(-0.36246143,0)"
         id="g320"><text
   transform="matrix(1,0,0,-1,289.125,186.965)"
   id="text322"><tspan
     y="0"
     x="0"
     style="font-size:7px;font-variant:normal;font-weight:normal;writing-mode:lr-tb;fill:#000000;fill-opacity:1;fill-rule:nonzero;stroke:none;font-family:Helvetica;-inkscape-font-specification:Helvetica"
     sodipodi:role="line"
     id="tspan324">QuorUM</tspan></text>

</g></g><path
       inkscape:connector-curvature="0"
       id="path326"
       style="fill:#ffff00;fill-opacity:1;fill-rule:nonzero;stroke:none"
       d="m 319,187.55 19.95,0 0,3.5 -19.95,0 0,-3.5 z" /><path
       inkscape:connector-curvature="0"
       id="path328"
       style="fill:none;stroke:#000000;stroke-width:0.75;stroke-linecap:butt;stroke-linejoin:miter;stroke-miterlimit:3.79999995;stroke-opacity:1;stroke-dasharray:none"
       d="m 319,187.55 19.95,0 0,3.5 -19.95,0 0,-3.5 z" /><path
       inkscape:connector-curvature="0"
       id="path330"
       style="fill:#ffff00;fill-opacity:1;fill-rule:nonzero;stroke:none"
       d="m 101.3,22.4 3.5,0 0,202.45 -3.5,0 0,-202.45 z" /><path
       inkscape:connector-curvature="0"
       id="path332"
       style="fill:none;stroke:#000000;stroke-width:0.75;stroke-linecap:butt;stroke-linejoin:miter;stroke-miterlimit:3.79999995;stroke-opacity:1;stroke-dasharray:none"
       d="m 101.3,22.4 3.45,0 0,202.4 -3.45,0 0,-202.4 z" /><path
       inkscape:connector-curvature="0"
       id="path334"
       style="fill:#ffff00;fill-opacity:1;fill-rule:nonzero;stroke:none"
       d="m 143.65,22.4 3.5,0 0,1 -3.5,0 0,-1 z" /><path
       inkscape:connector-curvature="0"
       id="path336"
       style="fill:none;stroke:#000000;stroke-width:0.75;stroke-linecap:butt;stroke-linejoin:miter;stroke-miterlimit:3.79999995;stroke-opacity:1;stroke-dasharray:none"
       d="m 143.65,22.4 3.45,0 0,0.95 -3.45,0 0,-0.95 z" /><path
       inkscape:connector-curvature="0"
       id="path338"
       style="fill:#ffff00;fill-opacity:1;fill-rule:nonzero;stroke:none"
       d="m 185.95,22.4 3.5,0 0,0.35 -3.5,0 0,-0.35 z" /><path
       inkscape:connector-curvature="0"
       id="path340"
       style="fill:none;stroke:#000000;stroke-width:0.75;stroke-linecap:butt;stroke-linejoin:miter;stroke-miterlimit:3.79999995;stroke-opacity:1;stroke-dasharray:none"
       d="m 185.95,22.4 3.45,0 0,0.3 -3.45,0 0,-0.3 z" /><path
       inkscape:connector-curvature="0"
       id="path342"
       style="fill:#ffff00;fill-opacity:1;fill-rule:nonzero;stroke:none"
       d="m 228.25,22.4 3.55,0 0,0.2 -3.55,0 0,-0.2 z" /><path
       inkscape:connector-curvature="0"
       id="path344"
       style="fill:none;stroke:#000000;stroke-width:0.75;stroke-linecap:butt;stroke-linejoin:miter;stroke-miterlimit:3.79999995;stroke-opacity:1;stroke-dasharray:none"
       d="m 228.25,22.4 3.5,0 0,0.15 -3.5,0 0,-0.15 z" /><path
       inkscape:connector-curvature="0"
       id="path346"
       style="fill:#ffff00;fill-opacity:1;fill-rule:nonzero;stroke:none"
       d="m 270.6,22.4 3.5,0 0,0.1 -3.5,0 0,-0.1 z" /><path
       inkscape:connector-curvature="0"
       id="path348"
       style="fill:none;stroke:#000000;stroke-width:0.75;stroke-linecap:butt;stroke-linejoin:miter;stroke-miterlimit:3.79999995;stroke-opacity:1;stroke-dasharray:none"
       d="m 270.6,22.4 3.45,0 0,0.05 -3.45,0 0,-0.05 z" /><path
       inkscape:connector-curvature="0"
       id="path350"
       style="fill:#ffff00;fill-opacity:1;fill-rule:nonzero;stroke:none"
       d="m 312.9,22.4 3.55,0 0,0.9 -3.55,0 0,-0.9 z" /><path
       inkscape:connector-curvature="0"
       id="path352"
       style="fill:none;stroke:#000000;stroke-width:0.75;stroke-linecap:butt;stroke-linejoin:miter;stroke-miterlimit:3.79999995;stroke-opacity:1;stroke-dasharray:none"
       d="m 312.9,22.4 3.5,0 0,0.85 -3.5,0 0,-0.85 z" /><path
       inkscape:connector-curvature="0"
       id="path354"
       style="fill:none;stroke:#000000;stroke-width:1.5;stroke-linecap:butt;stroke-linejoin:miter;stroke-miterlimit:3.79999995;stroke-opacity:1;stroke-dasharray:none"
       d="m 51.1,22.4 296.25,0 0,208.55 -296.25,0 0,-208.55 z" /><text
       xml:space="preserve"
       style="font-size:6.4000001px;font-style:normal;font-variant:normal;font-weight:normal;font-stretch:normal;line-height:125%;letter-spacing:0px;word-spacing:0px;fill:#000000;fill-opacity:1;stroke:none;font-family:Liberation Sans;-inkscape-font-specification:Liberation Sans"
       x="143.82031"
       y="-243.97516"
       id="text3173"
       sodipodi:linespacing="125%"
       transform="scale(1,-1)"><tspan
         sodipodi:role="line"
         id="tspan3175"
         x="143.82031"
         y="-243.97516">Percent of bases vs. # of errors in read</tspan></text>
</g></svg>